<?xml version="1.0" encoding="UTF-8"?>
<svg id="Ebene_2" xmlns="http://www.w3.org/2000/svg" version="1.1" xmlns:xlink="http://www.w3.org/1999/xlink" viewBox="0 0 828.8 432">
  <!-- Generator: Adobe Illustrator 30.0.0, SVG Export Plug-In . SVG Version: 2.1.1 Build 123)  -->
  <defs>
    <style>
      .st0 {
        fill: url(#Unbenannter_Verlauf_20);
      }

      .st1 {
        fill: url(#Unbenannter_Verlauf_8);
      }

      .st2 {
        fill: url(#Unbenannter_Verlauf_21);
      }

      .st3 {
        fill: url(#Unbenannter_Verlauf_3);
      }

      .st4 {
        fill: url(#Unbenannter_Verlauf_15);
      }

      .st5 {
        fill: url(#Unbenannter_Verlauf_7);
      }

      .st6 {
        fill: url(#Unbenannter_Verlauf_12);
      }

      .st7 {
        fill: url(#Unbenannter_Verlauf_6);
      }

      .st8 {
        fill: url(#Unbenannter_Verlauf_5);
      }

      .st9 {
        fill: url(#Unbenannter_Verlauf_19);
      }

      .st10 {
        fill: url(#Unbenannter_Verlauf_10);
      }

      .st11 {
        fill: url(#Unbenannter_Verlauf_11);
      }

      .st12 {
        fill: url(#Unbenannter_Verlauf_17);
      }

      .st13 {
        fill: url(#Unbenannter_Verlauf_22);
      }

      .st14 {
        fill: url(#Unbenannter_Verlauf_14);
      }

      .st15 {
        fill: url(#Unbenannter_Verlauf_4);
      }

      .st16 {
        fill: url(#Unbenannter_Verlauf);
      }

      .st17 {
        fill: url(#Unbenannter_Verlauf_23);
      }

      .st18 {
        fill: url(#Unbenannter_Verlauf_9);
      }

      .st19 {
        fill: #ededed;
      }

      .st20 {
        fill: url(#Unbenannter_Verlauf_18);
      }

      .st21 {
        fill: url(#Unbenannter_Verlauf_2);
      }

      .st22 {
        fill: url(#Unbenannter_Verlauf_13);
      }

      .st23 {
        fill: url(#Unbenannter_Verlauf_16);
      }
    </style>
    <linearGradient id="Unbenannter_Verlauf" data-name="Unbenannter Verlauf" x1="829.6" y1="370.5" x2="7.5" y2="370.5" gradientTransform="translate(0 432.9) scale(1 -1)" gradientUnits="userSpaceOnUse">
      <stop offset="0" stop-color="#48497b"/>
      <stop offset="1" stop-color="#18073a"/>
    </linearGradient>
    <linearGradient id="Unbenannter_Verlauf_2" data-name="Unbenannter Verlauf 2" x1="829.6" y1="370.5" x2="7.5" y2="370.5" gradientTransform="translate(0 432.9) scale(1 -1)" gradientUnits="userSpaceOnUse">
      <stop offset="0" stop-color="#48497b"/>
      <stop offset="1" stop-color="#18073a"/>
    </linearGradient>
    <linearGradient id="Unbenannter_Verlauf_3" data-name="Unbenannter Verlauf 3" x1="829.6" y1="208.1" x2="7.5" y2="208.1" gradientTransform="translate(0 432.9) scale(1 -1)" gradientUnits="userSpaceOnUse">
      <stop offset="0" stop-color="#48497b"/>
      <stop offset="1" stop-color="#18073a"/>
    </linearGradient>
    <linearGradient id="Unbenannter_Verlauf_4" data-name="Unbenannter Verlauf 4" x1="829.6" y1="370.5" x2="7.5" y2="370.5" gradientTransform="translate(0 432.9) scale(1 -1)" gradientUnits="userSpaceOnUse">
      <stop offset="0" stop-color="#48497b"/>
      <stop offset="1" stop-color="#18073a"/>
    </linearGradient>
    <linearGradient id="Unbenannter_Verlauf_5" data-name="Unbenannter Verlauf 5" x1="842.9" y1="422.3" x2="30.6" y2="422.3" gradientTransform="translate(0 432.9) scale(1 -1)" gradientUnits="userSpaceOnUse">
      <stop offset="0" stop-color="#48497b"/>
      <stop offset="1" stop-color="#18073a"/>
    </linearGradient>
    <linearGradient id="Unbenannter_Verlauf_6" data-name="Unbenannter Verlauf 6" x1="842.9" y1="422.3" x2="30.6" y2="422.3" gradientTransform="translate(0 432.9) scale(1 -1)" gradientUnits="userSpaceOnUse">
      <stop offset="0" stop-color="#48497b"/>
      <stop offset="1" stop-color="#18073a"/>
    </linearGradient>
    <linearGradient id="Unbenannter_Verlauf_7" data-name="Unbenannter Verlauf 7" x1="842.9" y1="422.3" x2="30.6" y2="422.3" gradientTransform="translate(0 432.9) scale(1 -1)" gradientUnits="userSpaceOnUse">
      <stop offset="0" stop-color="#48497b"/>
      <stop offset="1" stop-color="#18073a"/>
    </linearGradient>
    <linearGradient id="Unbenannter_Verlauf_8" data-name="Unbenannter Verlauf 8" x1="842.9" y1="422.3" x2="30.6" y2="422.3" gradientTransform="translate(0 432.9) scale(1 -1)" gradientUnits="userSpaceOnUse">
      <stop offset="0" stop-color="#48497b"/>
      <stop offset="1" stop-color="#18073a"/>
    </linearGradient>
    <linearGradient id="Unbenannter_Verlauf_9" data-name="Unbenannter Verlauf 9" x1="842.9" y1="422.3" x2="30.6" y2="422.3" gradientTransform="translate(0 432.9) scale(1 -1)" gradientUnits="userSpaceOnUse">
      <stop offset="0" stop-color="#48497b"/>
      <stop offset="1" stop-color="#18073a"/>
    </linearGradient>
    <linearGradient id="Unbenannter_Verlauf_10" data-name="Unbenannter Verlauf 10" x1="842.9" y1="422.3" x2="30.6" y2="422.3" gradientTransform="translate(0 432.9) scale(1 -1)" gradientUnits="userSpaceOnUse">
      <stop offset="0" stop-color="#48497b"/>
      <stop offset="1" stop-color="#18073a"/>
    </linearGradient>
    <linearGradient id="Unbenannter_Verlauf_11" data-name="Unbenannter Verlauf 11" x1="842.9" y1="422.3" x2="30.6" y2="422.3" gradientTransform="translate(0 432.9) scale(1 -1)" gradientUnits="userSpaceOnUse">
      <stop offset="0" stop-color="#48497b"/>
      <stop offset="1" stop-color="#18073a"/>
    </linearGradient>
    <linearGradient id="Unbenannter_Verlauf_12" data-name="Unbenannter Verlauf 12" x1="842.9" y1="420.5" x2="30.6" y2="420.5" gradientTransform="translate(0 432.9) scale(1 -1)" gradientUnits="userSpaceOnUse">
      <stop offset="0" stop-color="#48497b"/>
      <stop offset="1" stop-color="#18073a"/>
    </linearGradient>
    <linearGradient id="Unbenannter_Verlauf_13" data-name="Unbenannter Verlauf 13" x1="842.9" y1="420.5" x2="30.6" y2="420.5" gradientTransform="translate(0 432.9) scale(1 -1)" gradientUnits="userSpaceOnUse">
      <stop offset="0" stop-color="#48497b"/>
      <stop offset="1" stop-color="#18073a"/>
    </linearGradient>
    <linearGradient id="Unbenannter_Verlauf_14" data-name="Unbenannter Verlauf 14" x1="842.9" y1="422.3" x2="30.6" y2="422.3" gradientTransform="translate(0 432.9) scale(1 -1)" gradientUnits="userSpaceOnUse">
      <stop offset="0" stop-color="#48497b"/>
      <stop offset="1" stop-color="#18073a"/>
    </linearGradient>
    <linearGradient id="Unbenannter_Verlauf_15" data-name="Unbenannter Verlauf 15" x1="842.9" y1="422.3" x2="30.6" y2="422.3" gradientTransform="translate(0 432.9) scale(1 -1)" gradientUnits="userSpaceOnUse">
      <stop offset="0" stop-color="#48497b"/>
      <stop offset="1" stop-color="#18073a"/>
    </linearGradient>
    <linearGradient id="Unbenannter_Verlauf_16" data-name="Unbenannter Verlauf 16" x1="842.9" y1="422.3" x2="30.6" y2="422.3" gradientTransform="translate(0 432.9) scale(1 -1)" gradientUnits="userSpaceOnUse">
      <stop offset="0" stop-color="#48497b"/>
      <stop offset="1" stop-color="#18073a"/>
    </linearGradient>
    <linearGradient id="Unbenannter_Verlauf_17" data-name="Unbenannter Verlauf 17" x1="842.9" y1="422.3" x2="30.6" y2="422.3" gradientTransform="translate(0 432.9) scale(1 -1)" gradientUnits="userSpaceOnUse">
      <stop offset="0" stop-color="#48497b"/>
      <stop offset="1" stop-color="#18073a"/>
    </linearGradient>
    <linearGradient id="Unbenannter_Verlauf_18" data-name="Unbenannter Verlauf 18" x1="842.9" y1="422.3" x2="30.6" y2="422.3" gradientTransform="translate(0 432.9) scale(1 -1)" gradientUnits="userSpaceOnUse">
      <stop offset="0" stop-color="#48497b"/>
      <stop offset="1" stop-color="#18073a"/>
    </linearGradient>
    <linearGradient id="Unbenannter_Verlauf_19" data-name="Unbenannter Verlauf 19" x1="842.9" y1="422.3" x2="30.6" y2="422.3" gradientTransform="translate(0 432.9) scale(1 -1)" gradientUnits="userSpaceOnUse">
      <stop offset="0" stop-color="#48497b"/>
      <stop offset="1" stop-color="#18073a"/>
    </linearGradient>
    <linearGradient id="Unbenannter_Verlauf_20" data-name="Unbenannter Verlauf 20" x1="842.9" y1="422.3" x2="30.6" y2="422.3" gradientTransform="translate(0 432.9) scale(1 -1)" gradientUnits="userSpaceOnUse">
      <stop offset="0" stop-color="#48497b"/>
      <stop offset="1" stop-color="#18073a"/>
    </linearGradient>
    <linearGradient id="Unbenannter_Verlauf_21" data-name="Unbenannter Verlauf 21" x1="842.9" y1="420.5" x2="30.6" y2="420.5" gradientTransform="translate(0 432.9) scale(1 -1)" gradientUnits="userSpaceOnUse">
      <stop offset="0" stop-color="#48497b"/>
      <stop offset="1" stop-color="#18073a"/>
    </linearGradient>
    <linearGradient id="Unbenannter_Verlauf_22" data-name="Unbenannter Verlauf 22" x1="842.9" y1="420.5" x2="30.6" y2="420.5" gradientTransform="translate(0 432.9) scale(1 -1)" gradientUnits="userSpaceOnUse">
      <stop offset="0" stop-color="#48497b"/>
      <stop offset="1" stop-color="#18073a"/>
    </linearGradient>
    <linearGradient id="Unbenannter_Verlauf_23" data-name="Unbenannter Verlauf 23" x1="842.9" y1="423.2" x2="30.6" y2="423.2" gradientTransform="translate(0 432.9) scale(1 -1)" gradientUnits="userSpaceOnUse">
      <stop offset="0" stop-color="#48497b"/>
      <stop offset="1" stop-color="#18073a"/>
    </linearGradient>
  </defs>
  <polygon class="st16" points="557.9 17.6 569.7 17.6 529.7 57.6 529.7 57.6 524.8 62.4 524.8 62.4 524.8 62.4 529.7 67.3 529.7 67.3 569.7 107.3 557.9 107.3 513 62.4 557.9 17.6"/>
  <polygon class="st21" points="536.4 17.6 548.2 17.6 508.2 57.6 508.2 57.6 503.3 62.4 503.4 62.4 503.3 62.4 508.2 67.3 508.2 67.3 548.2 107.3 536.4 107.3 491.6 62.4 536.4 17.6"/>
  <polygon class="st3" points="526.7 17.6 486.7 57.6 486.7 57.6 481.9 62.4 481.9 62.4 481.9 62.4 486.7 67.3 486.7 67.3 526.7 107.3 87.1 107.3 59.8 134.7 59.8 218.2 36.7 241.3 36.7 309.9 24 322.5 24 432 0 432 0 309.9 0 307.9 0 107.3 0 94.1 0 17.6 526.7 17.6"/>
  <polygon class="st15" points="579.3 17.6 794.1 17.6 804.2 17.6 828.8 17.6 828.8 82.7 804.2 107.3 579.3 107.3 534.5 62.4 579.3 17.6"/>
  <path class="st19" d="M702.8,31v-6.3h1.7c.5,0,1,0,1.4.2.4.1.8.3,1.1.5s.5.6.7,1,.3.9.3,1.5,0,1.1-.3,1.5-.4.7-.7,1c-.3.2-.7.4-1.1.5s-.9.2-1.4.2h-1.7ZM703.7,30.2h.8c.3,0,.7,0,1,0,.3,0,.6-.2.8-.3s.4-.4.6-.7c.1-.3.2-.8.2-1.3s0-1-.2-1.3-.3-.6-.6-.7c-.2-.2-.5-.3-.8-.3-.3,0-.6,0-1,0h-.8v4.8h0Z"/>
  <path class="st19" d="M708.2,31l2.4-6.3h1l2.4,6.3h-1l-.5-1.4h-2.9l-.5,1.4h-1ZM709.9,28.8h2.3l-1.2-3.3-1.2,3.3h0Z"/>
  <path class="st19" d="M715.6,31v-5.6h-2.1v-.8h5.1v.8h-2.1v5.6h-.9Z"/>
  <path class="st19" d="M718.2,31l2.4-6.3h1l2.4,6.3h-1l-.5-1.4h-2.9l-.5,1.4h-1ZM719.9,28.8h2.3l-1.2-3.3-1.2,3.3h0Z"/>
  <path class="st19" d="M724.8,31v-6.3h2.5c.5,0,.8,0,1.1.2.3.1.5.4.6.6s.2.5.2.8,0,.5-.2.8-.3.5-.5.6c.3.2.5.4.7.7.2.3.2.6.2.9s0,.6-.2.9c-.2.3-.4.5-.7.7s-.7.3-1.2.3h-2.7,0ZM725.6,27.4h1.8c.3,0,.6-.1.7-.3.2-.2.2-.4.2-.7s0-.3-.1-.5-.2-.3-.3-.4c-.1-.1-.3-.1-.5-.1h-1.8v2h0ZM725.6,30.2h1.9c.2,0,.4,0,.6-.2.2-.1.3-.2.4-.4,0-.2.1-.3.1-.5s0-.4-.1-.5-.2-.3-.4-.4-.4-.2-.6-.2h-1.9v2.2h0Z"/>
  <path class="st19" d="M729.8,31l2.4-6.3h1l2.4,6.3h-1l-.5-1.4h-2.9l-.5,1.4h-1ZM731.5,28.8h2.3l-1.2-3.3-1.2,3.3h0Z"/>
  <path class="st19" d="M738.4,31.1c-.3,0-.7,0-1-.2s-.6-.3-.9-.5-.4-.5-.5-.8l.8-.2c0,.2.2.4.4.6s.4.3.6.3c.2,0,.5.1.7.1s.5,0,.7-.1.4-.2.5-.4c.1-.2.2-.4.2-.6s0-.5-.3-.6c-.2-.1-.5-.3-1-.4l-.8-.2c-.3,0-.6-.2-.9-.3-.3-.1-.5-.3-.7-.5-.2-.2-.3-.5-.3-.9s.1-.7.3-.9c.2-.2.5-.4.9-.6.4-.1.7-.2,1.1-.2s.6,0,.9.1.5.2.8.4c.2.2.4.4.5.7l-.8.2c-.1-.2-.3-.4-.6-.5s-.5-.2-.8-.2-.4,0-.7.1-.4.2-.5.3-.2.3-.2.5,0,.4.2.5c.1.1.3.2.5.3.2,0,.4.1.7.2h.7c.3.2.6.3.9.5.3.1.5.3.7.6.2.2.3.6.3,1s0,.5-.2.8-.3.4-.6.6c-.2.1-.5.3-.8.4-.3,0-.6.1-.9.1h0Z"/>
  <path class="st19" d="M742,31v-6.3h4.3v.8h-3.4v1.9h2.5v.8h-2.5v2.1h3.4v.8s-4.3,0-4.3,0Z"/>
  <path class="st19" d="M746.8,31.7v-.8h3.6v.8h-3.6Z"/>
  <path class="st19" d="M751.1,31v-6.3h1.3l2.9,5.4v-5.4h.9v6.3h-1.3l-2.9-5.4v5.4s-.9,0-.9,0Z"/>
  <path class="st19" d="M757,31l2.4-6.3h1l2.4,6.3h-1l-.5-1.4h-2.9l-.5,1.4h-1ZM758.7,28.8h2.3l-1.2-3.3-1.2,3.3h0Z"/>
  <path class="st19" d="M763.6,31v-6.3h1.5l1.7,5.2,1.7-5.2h1.5v6.3h-.9v-5.4l-1.8,5.4h-.9l-1.8-5.4v5.4h-.9,0Z"/>
  <path class="st19" d="M771.3,31v-6.3h4.3v.8h-3.4v1.9h2.5v.8h-2.5v2.1h3.4v.8s-4.3,0-4.3,0Z"/>
  <path class="st19" d="M777,27.4c-.2,0-.3,0-.4-.2s-.2-.3-.2-.4,0-.3.2-.4.3-.2.4-.2.3,0,.4.2.2.3.2.4,0,.3-.2.4-.3.2-.4.2ZM777,31.1c-.2,0-.3,0-.4-.2s-.2-.3-.2-.4,0-.3.2-.4.3-.2.4-.2.3,0,.4.2.2.3.2.4,0,.3-.2.4-.3.2-.4.2Z"/>
  <path class="st19" d="M778.9,27.4c-.2,0-.3,0-.4-.2s-.2-.3-.2-.4,0-.3.2-.4.3-.2.4-.2.3,0,.4.2.2.3.2.4,0,.3-.2.4-.3.2-.4.2ZM778.9,31.1c-.2,0-.3,0-.4-.2s-.2-.3-.2-.4,0-.3.2-.4.3-.2.4-.2.3,0,.4.2.2.3.2.4,0,.3-.2.4-.3.2-.4.2Z"/>
  <path class="st19" d="M780.6,31v-6.3h1.7c.5,0,1,0,1.4.2.4.1.8.3,1.1.5s.5.6.7,1,.3.9.3,1.5,0,1.1-.3,1.5-.4.7-.7,1c-.3.2-.7.4-1.1.5s-.9.2-1.4.2h-1.7ZM781.5,30.2h.8c.3,0,.7,0,1,0,.3,0,.6-.2.8-.3s.4-.4.6-.7c.1-.3.2-.8.2-1.3s0-1-.2-1.3-.3-.6-.6-.7c-.2-.2-.5-.3-.8-.3-.3,0-.6,0-1,0h-.8v4.8h0Z"/>
  <path class="st19" d="M789,31.1c-.3,0-.7,0-1-.2s-.6-.3-.9-.5-.4-.5-.5-.8l.8-.2c0,.2.2.4.4.6s.4.3.6.3c.2,0,.5.1.7.1s.5,0,.7-.1.4-.2.5-.4c.1-.2.2-.4.2-.6s0-.5-.3-.6c-.2-.1-.5-.3-1-.4l-.8-.2c-.3,0-.6-.2-.9-.3-.3-.1-.5-.3-.7-.5-.2-.2-.3-.5-.3-.9s.1-.7.3-.9c.2-.2.5-.4.9-.6.4-.1.7-.2,1.1-.2s.6,0,.9.1.5.2.8.4c.2.2.4.4.5.7l-.8.2c-.1-.2-.3-.4-.6-.5s-.5-.2-.8-.2-.4,0-.7.1-.4.2-.5.3-.2.3-.2.5,0,.4.2.5c.1.1.3.2.5.3.2,0,.4.1.7.2h.7c.3.2.6.3.9.5.3.1.5.3.7.6.2.2.3.6.3,1s0,.5-.2.8-.3.4-.6.6c-.2.1-.5.3-.8.4-.3,0-.6.1-.9.1h0Z"/>
  <path class="st19" d="M792,31.7v-.8h3.6v.8h-3.6Z"/>
  <path class="st19" d="M795.7,31l2.4-6.3h1l2.4,6.3h-1l-.5-1.4h-2.9l-.5,1.4h-1ZM797.4,28.8h2.3l-1.2-3.3-1.2,3.3h0Z"/>
  <path class="st19" d="M803.1,31v-5.6h-2.1v-.8h5.1v.8h-2.1v5.6h-.9Z"/>
  <path class="st19" d="M806.9,31v-6.3h2.5c.5,0,.8,0,1.1.2.3.1.5.4.6.6s.2.5.2.8,0,.5-.2.8-.3.5-.5.6c.3.2.5.4.7.7.2.3.2.6.2.9s0,.6-.2.9c-.2.3-.4.5-.7.7s-.7.3-1.2.3h-2.7,0ZM807.8,27.4h1.8c.3,0,.6-.1.7-.3.2-.2.2-.4.2-.7s0-.3-.1-.5-.2-.3-.3-.4c-.1-.1-.3-.1-.5-.1h-1.8v2h0ZM807.8,30.2h1.9c.2,0,.4,0,.6-.2.2-.1.3-.2.4-.4,0-.2.1-.3.1-.5s0-.4-.1-.5-.2-.3-.4-.4-.4-.2-.6-.2h-1.9v2.2h0Z"/>
  <path class="st19" d="M814.1,31c.2-.2.3-.5.5-.6.1-.2.3-.4.4-.6.2-.2.3-.5.4-.7-.2,0-.3,0-.5,0-.4,0-.8-.1-1.1-.3s-.6-.5-.8-.8-.3-.7-.3-1.1,0-.8.3-1.1.5-.6.8-.8c.3-.2.7-.3,1.1-.3s.8.1,1.2.3c.3.2.6.5.8.8s.3.7.3,1.1,0,.6-.2.9c0,0,0,.2-.2.4-.1.2-.3.5-.4.8-.2.3-.4.6-.6,1-.2.4-.5.7-.7,1.1h-1ZM814.9,28.3c.3,0,.5,0,.7-.2s.4-.3.5-.5.2-.5.2-.7,0-.5-.2-.7-.3-.4-.5-.5c-.2-.1-.5-.2-.7-.2s-.5,0-.7.2c-.2.1-.4.3-.5.5s-.2.5-.2.7,0,.5.2.7.3.4.5.5.5.2.7.2Z"/>
  <path class="st19" d="M819.8,31v-4.8h-1.7v-.6c.3,0,.6,0,.8,0,.3,0,.5-.1.7-.3.2-.1.3-.3.4-.6h.5v6.3h-.8,0Z"/>
  <path class="st19" d="M727.7,42.4v-6.3h1.7c.5,0,1,0,1.4.2.4,0,.8.3,1.1.5s.5.6.7,1,.3.9.3,1.5,0,1.1-.3,1.5-.4.7-.7,1c-.3.2-.7.4-1.1.5s-.9.2-1.4.2h-1.7ZM728.6,41.6h.8c.3,0,.7,0,1,0,.3,0,.6-.2.8-.3s.4-.4.6-.7c.1-.3.2-.8.2-1.3s0-1-.2-1.3-.3-.6-.6-.7c-.2-.2-.5-.3-.8-.3-.3,0-.6,0-1,0h-.8v4.8h0Z"/>
  <path class="st19" d="M733.1,42.4l2.4-6.3h1l2.4,6.3h-1l-.5-1.4h-2.9l-.5,1.4h-1ZM734.8,40.2h2.3l-1.2-3.3-1.2,3.3h0Z"/>
  <path class="st19" d="M740.5,42.4v-5.6h-2.1v-.8h5.1v.8h-2.1v5.6h-.9Z"/>
  <path class="st19" d="M743.1,42.4l2.4-6.3h1l2.4,6.3h-1l-.5-1.4h-2.9l-.5,1.4h-1ZM744.8,40.2h2.3l-1.2-3.3-1.2,3.3h0Z"/>
  <path class="st19" d="M749.7,42.4v-6.3h2.5c.5,0,.8,0,1.1.2.3.2.5.3.6.6s.2.5.2.8,0,.5-.2.8-.3.5-.5.6c.3.2.5.4.7.7.2.3.2.6.2.9s0,.6-.2.9c-.2.3-.4.5-.7.7s-.7.3-1.2.3h-2.7,0ZM750.5,38.7h1.8c.3,0,.6,0,.7-.3s.2-.4.2-.7,0-.3-.1-.5-.2-.3-.3-.4c-.1,0-.3-.2-.5-.2h-1.8v2h0ZM750.5,41.6h1.9c.2,0,.4,0,.6-.2.2-.1.3-.2.4-.4,0-.2.1-.3.1-.5s0-.4-.1-.5-.2-.3-.4-.4-.4-.2-.6-.2h-1.9v2.2h0Z"/>
  <path class="st19" d="M754.7,42.4l2.4-6.3h1l2.4,6.3h-1l-.5-1.4h-2.9l-.5,1.4h-1ZM756.4,40.2h2.3l-1.2-3.3-1.2,3.3h0Z"/>
  <path class="st19" d="M763.3,42.5c-.3,0-.7,0-1-.2s-.6-.3-.9-.5-.4-.5-.5-.8l.8-.2c0,.2.2.4.4.6s.4.3.6.3c.2,0,.5,0,.7,0s.5,0,.7-.1.4-.2.5-.4c.1-.2.2-.4.2-.6s0-.5-.3-.6c-.2-.2-.5-.3-1-.4l-.8-.2c-.3,0-.6-.2-.9-.3-.3-.1-.5-.3-.7-.5s-.3-.5-.3-.9.1-.7.3-.9c.2-.2.5-.4.9-.6.4-.1.7-.2,1.1-.2s.6,0,.9.1.5.2.8.4c.2.2.4.4.5.7l-.8.2c-.1-.2-.3-.4-.6-.5s-.5-.2-.8-.2-.4,0-.7.1-.4.2-.5.3-.2.3-.2.5,0,.4.2.5c.1.1.3.2.5.3.2,0,.4.1.7.2l.7.2c.3,0,.6.2.9.3.3.1.5.3.7.6.2.2.3.6.3,1s0,.5-.2.8-.3.4-.6.6c-.2.2-.5.3-.8.4-.3,0-.6.1-.9.1h0Z"/>
  <path class="st19" d="M766.9,42.4v-6.3h4.3v.8h-3.4v1.9h2.5v.8h-2.5v2.1h3.4v.8s-4.3,0-4.3,0Z"/>
  <path class="st19" d="M771.6,43.1v-.8h3.6v.8h-3.6Z"/>
  <path class="st19" d="M778.6,42.5c-.9,0-1.6-.2-2-.7s-.6-1.2-.6-2.1v-3.7h.9v3.8c0,.6.1,1.1.4,1.4s.7.5,1.3.5,1-.2,1.3-.5.4-.8.4-1.4v-3.8h.9v3.7c0,.9-.2,1.6-.6,2.1s-1,.7-2,.7h0Z"/>
  <path class="st19" d="M784.6,42.5c-.3,0-.7,0-1-.2s-.6-.3-.9-.5-.4-.5-.5-.8l.8-.2c0,.2.2.4.4.6s.4.3.6.3c.2,0,.5,0,.7,0s.5,0,.7-.1.4-.2.5-.4c.1-.2.2-.4.2-.6s0-.5-.3-.6c-.2-.2-.5-.3-1-.4l-.8-.2c-.3,0-.6-.2-.9-.3-.3-.1-.5-.3-.7-.5s-.3-.5-.3-.9.1-.7.3-.9c.2-.2.5-.4.9-.6.4-.1.7-.2,1.1-.2s.6,0,.9.1.5.2.8.4c.2.2.4.4.5.7l-.8.2c-.1-.2-.3-.4-.6-.5s-.5-.2-.8-.2-.4,0-.7.1-.4.2-.5.3-.2.3-.2.5,0,.4.2.5c.1.1.3.2.5.3.2,0,.4.1.7.2l.7.2c.3,0,.6.2.9.3.3.1.5.3.7.6.2.2.3.6.3,1s0,.5-.2.8-.3.4-.6.6c-.2.2-.5.3-.8.4-.3,0-.6.1-.9.1h0Z"/>
  <path class="st19" d="M788.2,42.4v-6.3h2c.5,0,1,0,1.4.1.4,0,.7.3.9.5.2.3.3.7.3,1.2s0,.5-.1.8-.3.5-.5.6c-.2.2-.6.3-1.1.4l2,2.7h-1.1l-1.9-2.7h-1v2.7h-.9ZM789.1,38.9h1.2c.3,0,.6,0,.8,0s.5-.1.6-.3c.2-.2.2-.4.2-.7s0-.6-.2-.7-.3-.2-.6-.3-.5,0-.8,0h-1.2s0,2.2,0,2.2Z"/>
  <path class="st19" d="M794.3,38.8c-.2,0-.3,0-.4-.2s-.2-.3-.2-.4,0-.3.2-.4.3-.2.4-.2.3,0,.4.2.2.3.2.4,0,.3-.2.4-.3.2-.4.2ZM794.3,42.5c-.2,0-.3,0-.4-.2s-.2-.3-.2-.4,0-.3.2-.4.3-.2.4-.2.3,0,.4.2.2.3.2.4,0,.3-.2.4-.3.2-.4.2Z"/>
  <path class="st19" d="M796.2,38.8c-.2,0-.3,0-.4-.2s-.2-.3-.2-.4,0-.3.2-.4.3-.2.4-.2.3,0,.4.2.2.3.2.4,0,.3-.2.4-.3.2-.4.2ZM796.2,42.5c-.2,0-.3,0-.4-.2s-.2-.3-.2-.4,0-.3.2-.4.3-.2.4-.2.3,0,.4.2.2.3.2.4,0,.3-.2.4-.3.2-.4.2Z"/>
  <path class="st19" d="M797.9,42.4v-6.3h2c.5,0,1,0,1.4.1.4,0,.7.3.9.5.2.3.3.7.3,1.2s0,.5-.1.8-.3.5-.5.6c-.2.2-.6.3-1.1.4l2,2.7h-1.1l-1.9-2.7h-1v2.7h-.9ZM798.8,38.9h1.2c.3,0,.6,0,.8,0s.5-.1.6-.3c.2-.2.2-.4.2-.7s0-.6-.2-.7-.3-.2-.6-.3-.5,0-.8,0h-1.2s0,2.2,0,2.2Z"/>
  <path class="st19" d="M806.3,42.5c-.6,0-1.1-.1-1.6-.4s-.8-.7-1-1.2-.4-1.1-.4-1.7.1-1.2.4-1.7.6-.9,1-1.2c.4-.3,1-.4,1.6-.4s1.1.1,1.6.4.8.7,1,1.2.4,1,.4,1.7-.1,1.2-.4,1.7-.6.9-1,1.2-1,.4-1.6.4ZM806.3,41.7c.4,0,.7,0,1-.3.3-.2.6-.5.7-.9s.3-.8.3-1.4,0-1-.3-1.4-.4-.7-.7-.8-.7-.3-1-.3-.7,0-1,.3-.6.5-.7.8-.3.8-.3,1.4,0,1,.3,1.4.4.7.7.9.7.3,1,.3Z"/>
  <path class="st19" d="M813.2,42.5c-.6,0-1.1-.1-1.6-.4s-.8-.7-1-1.2-.4-1.1-.4-1.7.1-1.2.4-1.7.6-.9,1-1.2c.4-.3,1-.4,1.6-.4s1.1.1,1.6.4.8.7,1,1.2.4,1,.4,1.7-.1,1.2-.4,1.7-.6.9-1,1.2-1,.4-1.6.4ZM813.2,41.7c.4,0,.7,0,1-.3.3-.2.6-.5.7-.9s.3-.8.3-1.4,0-1-.3-1.4-.4-.7-.7-.8-.7-.3-1-.3-.7,0-1,.3-.6.5-.7.8-.3.8-.3,1.4,0,1,.3,1.4.4.7.7.9.7.3,1,.3Z"/>
  <path class="st19" d="M818.5,42.4v-5.6h-2.1v-.8h5.1v.8h-2.1v5.6h-.9Z"/>
  <path class="st19" d="M717.5,53.7v-6.3h1.7c.5,0,1,0,1.4.2.4,0,.8.3,1.1.5s.5.6.7,1,.3.9.3,1.5,0,1.1-.3,1.5-.4.7-.7,1c-.3.2-.7.4-1.1.5s-.9.2-1.4.2h-1.7ZM718.3,53h.8c.3,0,.7,0,1,0,.3,0,.6-.2.8-.3s.4-.4.6-.7c.1-.3.2-.8.2-1.3s0-1-.2-1.3-.3-.6-.6-.7c-.2-.2-.5-.3-.8-.3-.3,0-.6,0-1,0h-.8v4.8h0Z"/>
  <path class="st19" d="M722.8,53.7l2.4-6.3h1l2.4,6.3h-1l-.5-1.4h-2.9l-.5,1.4h-1ZM724.5,51.6h2.3l-1.2-3.3-1.2,3.3h0Z"/>
  <path class="st19" d="M730.2,53.7v-5.6h-2.1v-.8h5.1v.8h-2.1v5.6h-.9Z"/>
  <path class="st19" d="M732.8,53.7l2.4-6.3h1l2.4,6.3h-1l-.5-1.4h-2.9l-.5,1.4h-1ZM734.5,51.6h2.3l-1.2-3.3-1.2,3.3h0Z"/>
  <path class="st19" d="M739.4,53.7v-6.3h2.5c.5,0,.8,0,1.1.2.3.2.5.3.6.6s.2.5.2.8,0,.5-.2.8-.3.5-.5.6c.3.2.5.4.7.7.2.3.2.6.2.9s0,.6-.2.9c-.2.3-.4.5-.7.7s-.7.3-1.2.3h-2.7,0ZM740.2,50.1h1.8c.3,0,.6,0,.7-.3s.2-.4.2-.7,0-.3-.1-.5-.2-.3-.3-.4c-.1,0-.3-.2-.5-.2h-1.8v2h0ZM740.2,53h1.9c.2,0,.4,0,.6-.2.2-.1.3-.2.4-.4,0-.2.1-.3.1-.5s0-.4-.1-.5-.2-.3-.4-.4-.4-.2-.6-.2h-1.9v2.2h0Z"/>
  <path class="st19" d="M744.4,53.7l2.4-6.3h1l2.4,6.3h-1l-.5-1.4h-2.9l-.5,1.4h-1ZM746.1,51.6h2.3l-1.2-3.3-1.2,3.3h0Z"/>
  <path class="st19" d="M753,53.8c-.3,0-.7,0-1-.2s-.6-.3-.9-.5-.4-.5-.5-.8l.8-.2c0,.2.2.4.4.6s.4.3.6.3c.2,0,.5,0,.7,0s.5,0,.7-.1.4-.2.5-.4c.1-.2.2-.4.2-.6s0-.5-.3-.6c-.2-.2-.5-.3-1-.4l-.8-.2c-.3,0-.6-.2-.9-.3-.3-.1-.5-.3-.7-.5s-.3-.5-.3-.9.1-.7.3-.9c.2-.2.5-.4.9-.6.4-.1.7-.2,1.1-.2s.6,0,.9.1.5.2.8.4c.2.2.4.4.5.7l-.8.2c-.1-.2-.3-.4-.6-.5s-.5-.2-.8-.2-.4,0-.7.1-.4.2-.5.3-.2.3-.2.5,0,.4.2.5c.1.1.3.2.5.3.2,0,.4.1.7.2l.7.2c.3,0,.6.2.9.3.3.1.5.3.7.6.2.2.3.6.3,1s0,.5-.2.8-.3.4-.6.6c-.2.2-.5.3-.8.4-.3,0-.6.1-.9.1h0Z"/>
  <path class="st19" d="M756.6,53.7v-6.3h4.3v.8h-3.4v1.9h2.5v.8h-2.5v2.1h3.4v.8s-4.3,0-4.3,0Z"/>
  <path class="st19" d="M761.4,54.5v-.8h3.6v.8h-3.6Z"/>
  <path class="st19" d="M766.7,53.7l-1.6-6.3h1l1.2,5.2,1.2-5.2h1l1.2,5.2,1.2-5.2h1l-1.6,6.3h-1.1l-1.2-5.2-1.2,5.2h-1.1Z"/>
  <path class="st19" d="M773.7,53.7v-6.3h4.3v.8h-3.4v1.9h2.5v.8h-2.5v2.1h3.4v.8s-4.3,0-4.3,0Z"/>
  <path class="st19" d="M778.4,53.7l2.4-6.3h1l2.4,6.3h-1l-.5-1.4h-2.9l-.5,1.4h-1ZM780.1,51.6h2.3l-1.2-3.3-1.2,3.3h0Z"/>
  <path class="st19" d="M785,53.7v-6.3h.9v5.6h3.4v.8h-4.3Z"/>
  <path class="st19" d="M790.6,53.7v-5.6h-2.1v-.8h5.1v.8h-2.1v5.6h-.9Z"/>
  <path class="st19" d="M794.4,53.7v-6.3h.9v2.7h3.3v-2.7h.9v6.3h-.9v-2.9h-3.3v2.9h-.9Z"/>
  <path class="st19" d="M801.2,50.2c-.2,0-.3,0-.4-.2s-.2-.3-.2-.4,0-.3.2-.4.3-.2.4-.2.3,0,.4.2.2.3.2.4,0,.3-.2.4-.3.2-.4.2ZM801.2,53.8c-.2,0-.3,0-.4-.2s-.2-.3-.2-.4,0-.3.2-.4.3-.2.4-.2.3,0,.4.2.2.3.2.4,0,.3-.2.4-.3.2-.4.2Z"/>
  <path class="st19" d="M803.1,50.2c-.2,0-.3,0-.4-.2s-.2-.3-.2-.4,0-.3.2-.4.3-.2.4-.2.3,0,.4.2.2.3.2.4,0,.3-.2.4-.3.2-.4.2ZM803.1,53.8c-.2,0-.3,0-.4-.2s-.2-.3-.2-.4,0-.3.2-.4.3-.2.4-.2.3,0,.4.2.2.3.2.4,0,.3-.2.4-.3.2-.4.2Z"/>
  <path class="st19" d="M804.4,53.7v-.7c.8-.5,1.4-1,1.9-1.5.5-.5.9-.9,1.2-1.3s.4-.8.4-1.2,0-.6-.3-.8c-.2-.2-.5-.3-.9-.3s-.6,0-.8.2-.4.4-.5.8l-.8-.2c.1-.5.4-.8.7-1.1.4-.3.8-.4,1.4-.4s.7,0,1,.2c.3.1.5.3.7.6.2.2.3.5.3.9s0,.7-.3,1.1c-.2.3-.4.7-.7,1s-.7.7-1.1,1-.8.7-1.3,1h3.5v.7h-4.6Z"/>
  <path class="st19" d="M812.3,53.8c-.8,0-1.4-.3-1.9-.8-.4-.6-.6-1.4-.6-2.4s.2-1.9.6-2.4c.4-.6,1-.8,1.9-.8s1.4.3,1.9.8.6,1.4.6,2.4-.2,1.9-.6,2.4-1,.8-1.9.8ZM812.3,53.1c.4,0,.8-.1,1-.4l-2.5-3.6c0,.2-.1.4-.1.7s0,.5,0,.8c0,.8.1,1.5.4,1.9s.7.7,1.2.7h0ZM813.8,51.9c.1-.4.2-.8.2-1.4,0-.8-.1-1.5-.4-1.9-.3-.4-.7-.7-1.2-.7s-.8.1-1,.4l2.5,3.6h0Z"/>
  <path class="st19" d="M818.5,53.8c-.8,0-1.4-.3-1.9-.8-.4-.6-.6-1.4-.6-2.4s.2-1.9.6-2.4c.4-.6,1-.8,1.9-.8s1.4.3,1.9.8.6,1.4.6,2.4-.2,1.9-.6,2.4-1,.8-1.9.8ZM818.5,53.1c.4,0,.8-.1,1-.4l-2.5-3.6c0,.2-.1.4-.1.7s0,.5,0,.8c0,.8.1,1.5.4,1.9s.7.7,1.2.7h0ZM820,51.9c.1-.4.2-.8.2-1.4,0-.8-.1-1.5-.4-1.9-.3-.4-.7-.7-1.2-.7s-.8.1-1,.4l2.5,3.6h0Z"/>
  <path class="st19" d="M725,65.1v-6.3h1.7c.5,0,1,0,1.4.2.4,0,.8.3,1.1.5s.5.6.7,1,.3.9.3,1.5,0,1.1-.3,1.5-.4.7-.7,1c-.3.2-.7.4-1.1.5s-.9.2-1.4.2h-1.7ZM725.9,64.3h.8c.3,0,.7,0,1,0,.3,0,.6-.2.8-.3.2-.2.4-.4.6-.7.1-.3.2-.8.2-1.3s0-1-.2-1.3-.3-.6-.6-.7c-.2-.2-.5-.3-.8-.3-.3,0-.6,0-1,0h-.8v4.8h0Z"/>
  <path class="st19" d="M730.4,65.1l2.4-6.3h1l2.4,6.3h-1l-.5-1.4h-2.9l-.5,1.4h-1ZM732.1,62.9h2.3l-1.2-3.3-1.2,3.3h0Z"/>
  <path class="st19" d="M737.8,65.1v-5.6h-2.1v-.8h5.1v.8h-2.1v5.6h-.9Z"/>
  <path class="st19" d="M740.3,65.1l2.4-6.3h1l2.4,6.3h-1l-.5-1.4h-2.9l-.5,1.4h-1ZM742,62.9h2.3l-1.2-3.3-1.2,3.3h0Z"/>
  <path class="st19" d="M746.9,65.1v-6.3h2.5c.5,0,.8,0,1.1.2.3.2.5.3.6.6s.2.5.2.8,0,.5-.2.8-.3.5-.5.6c.3.2.5.4.7.7.2.3.2.6.2.9s0,.6-.2.9c-.2.3-.4.5-.7.7s-.7.3-1.2.3h-2.7,0ZM747.8,61.5h1.8c.3,0,.6,0,.7-.3s.2-.4.2-.7,0-.3-.1-.5-.2-.3-.3-.4c-.1,0-.3-.2-.5-.2h-1.8v2h0ZM747.8,64.3h1.9c.2,0,.4,0,.6-.2.2-.1.3-.2.4-.4,0-.2.1-.3.1-.5s0-.4-.1-.5-.2-.3-.4-.4-.4-.2-.6-.2h-1.9v2.2h0Z"/>
  <path class="st19" d="M751.9,65.1l2.4-6.3h1l2.4,6.3h-1l-.5-1.4h-2.9l-.5,1.4h-1ZM753.6,62.9h2.3l-1.2-3.3-1.2,3.3h0Z"/>
  <path class="st19" d="M760.6,65.2c-.3,0-.7,0-1-.2s-.6-.3-.9-.5-.4-.5-.5-.8l.8-.2c0,.2.2.4.4.6.2.1.4.3.6.3.2,0,.5,0,.7,0s.5,0,.7-.1.4-.2.5-.4c.1-.2.2-.4.2-.6s0-.5-.3-.6c-.2-.2-.5-.3-1-.4l-.8-.2c-.3,0-.6-.2-.9-.3-.3-.1-.5-.3-.7-.5s-.3-.5-.3-.9.1-.7.3-.9c.2-.2.5-.4.9-.6.4-.1.7-.2,1.1-.2s.6,0,.9.1.5.2.8.4c.2.2.4.4.5.7l-.8.2c-.1-.2-.3-.4-.6-.5s-.5-.2-.8-.2-.4,0-.7.1-.4.2-.5.3-.2.3-.2.5,0,.4.2.5c.1.1.3.2.5.3.2,0,.4.1.7.2l.7.2c.3,0,.6.2.9.3.3.1.5.3.7.6.2.2.3.6.3,1s0,.5-.2.8-.3.4-.6.6c-.2.2-.5.3-.8.4-.3,0-.6.1-.9.1h0Z"/>
  <path class="st19" d="M764.1,65.1v-6.3h4.3v.8h-3.4v1.9h2.5v.8h-2.5v2.1h3.4v.8s-4.3,0-4.3,0Z"/>
  <path class="st19" d="M768.9,65.8v-.8h3.6v.8h-3.6Z"/>
  <path class="st19" d="M775.3,65.2c-.3,0-.7,0-1-.2s-.6-.3-.9-.5-.4-.5-.5-.8l.8-.2c0,.2.2.4.4.6.2.1.4.3.6.3.2,0,.5,0,.7,0s.5,0,.7-.1.4-.2.5-.4c.1-.2.2-.4.2-.6s0-.5-.3-.6c-.2-.2-.5-.3-1-.4l-.8-.2c-.3,0-.6-.2-.9-.3-.3-.1-.5-.3-.7-.5s-.3-.5-.3-.9.1-.7.3-.9c.2-.2.5-.4.9-.6.4-.1.7-.2,1.1-.2s.6,0,.9.1.5.2.8.4c.2.2.4.4.5.7l-.8.2c-.1-.2-.3-.4-.6-.5s-.5-.2-.8-.2-.4,0-.7.1-.4.2-.5.3-.2.3-.2.5,0,.4.2.5c.1.1.3.2.5.3.2,0,.4.1.7.2l.7.2c.3,0,.6.2.9.3.3.1.5.3.7.6.2.2.3.6.3,1s0,.5-.2.8-.3.4-.6.6c-.2.2-.5.3-.8.4-.3,0-.6.1-.9.1h0Z"/>
  <path class="st19" d="M778.8,65.1v-.7h.9v-4.9h-.9v-.7h2.7v.7h-.9v4.9h.9v.7h-2.7Z"/>
  <path class="st19" d="M782.5,65.1v-.8l3.7-4.8h-3.6v-.8h4.6v.8l-3.7,4.8h3.8v.8h-4.9,0Z"/>
  <path class="st19" d="M788.5,65.1v-6.3h4.3v.8h-3.4v1.9h2.5v.8h-2.5v2.1h3.4v.8s-4.3,0-4.3,0Z"/>
  <path class="st19" d="M794.2,61.5c-.2,0-.3,0-.4-.2s-.2-.3-.2-.4,0-.3.2-.4.3-.2.4-.2.3,0,.4.2.2.3.2.4,0,.3-.2.4-.3.2-.4.2ZM794.2,65.2c-.2,0-.3,0-.4-.2s-.2-.3-.2-.4,0-.3.2-.4.3-.2.4-.2.3,0,.4.2.2.3.2.4,0,.3-.2.4-.3.2-.4.2Z"/>
  <path class="st19" d="M796.1,61.5c-.2,0-.3,0-.4-.2s-.2-.3-.2-.4,0-.3.2-.4.3-.2.4-.2.3,0,.4.2.2.3.2.4,0,.3-.2.4-.3.2-.4.2ZM796.1,65.2c-.2,0-.3,0-.4-.2s-.2-.3-.2-.4,0-.3.2-.4.3-.2.4-.2.3,0,.4.2.2.3.2.4,0,.3-.2.4-.3.2-.4.2Z"/>
  <path class="st19" d="M800.5,65.2c-.6,0-1.1-.1-1.6-.4s-.8-.7-1-1.2-.4-1.1-.4-1.7.1-1.2.4-1.7.6-.9,1-1.2c.4-.3,1-.4,1.6-.4s1.1.1,1.6.4.8.7,1,1.2.4,1,.4,1.7-.1,1.2-.4,1.7c-.2.5-.6.9-1,1.2s-1,.4-1.6.4ZM800.5,64.4c.4,0,.7,0,1-.3.3-.2.6-.5.7-.9s.3-.8.3-1.4,0-1-.3-1.4-.4-.7-.7-.8-.7-.3-1-.3-.7,0-1,.3-.6.5-.7.8-.3.8-.3,1.4,0,1,.3,1.4.4.7.7.9c.3.2.7.3,1,.3Z"/>
  <path class="st19" d="M804.7,65.1v-6.3h2c.5,0,1,0,1.4.2.4,0,.7.3.9.6.2.3.3.7.3,1.2s-.1.9-.3,1.2c-.2.3-.5.5-.9.6-.4,0-.8.2-1.4.2h-1.1v2.5h-.9,0ZM805.6,61.8h1.2c.3,0,.6,0,.8,0,.2,0,.4-.2.6-.3s.2-.4.2-.8,0-.6-.2-.8c-.2-.2-.3-.3-.6-.3s-.5,0-.8,0h-1.2v2.3h0Z"/>
  <path class="st19" d="M810.4,65.1v-6.3h4.3v.8h-3.4v1.9h2.5v.8h-2.5v2.1h3.4v.8s-4.3,0-4.3,0Z"/>
  <path class="st19" d="M815.8,65.1v-6.3h1.3l2.9,5.4v-5.4h.9v6.3h-1.3l-2.9-5.4v5.4s-.9,0-.9,0Z"/>
  <path class="st19" d="M672.4,76.4v-6.3h1.7c.5,0,1,0,1.4.2.4,0,.8.3,1.1.5s.5.6.7,1,.3.9.3,1.5,0,1.1-.3,1.5-.4.7-.7,1c-.3.2-.7.4-1.1.5s-.9.2-1.4.2h-1.7ZM673.3,75.7h.8c.3,0,.7,0,1,0,.3,0,.6-.2.8-.3.2-.2.4-.4.6-.7.1-.3.2-.8.2-1.3s0-1-.2-1.3-.3-.6-.6-.7c-.2-.2-.5-.3-.8-.3-.3,0-.6,0-1,0h-.8v4.8h0Z"/>
  <path class="st19" d="M677.8,76.4l2.4-6.3h1l2.4,6.3h-1l-.5-1.4h-2.9l-.5,1.4h-1ZM679.5,74.3h2.3l-1.2-3.3-1.2,3.3h0Z"/>
  <path class="st19" d="M685.2,76.4v-5.6h-2.1v-.8h5.1v.8h-2.1v5.6h-.9Z"/>
  <path class="st19" d="M687.7,76.4l2.4-6.3h1l2.4,6.3h-1l-.5-1.4h-2.9l-.5,1.4h-1ZM689.4,74.3h2.3l-1.2-3.3-1.2,3.3h0Z"/>
  <path class="st19" d="M694.3,76.4v-6.3h2.5c.5,0,.8,0,1.1.2.3.2.5.3.6.6s.2.5.2.8,0,.5-.2.8-.3.5-.5.6c.3.2.5.4.7.7.2.3.2.6.2.9s0,.6-.2.9c-.2.3-.4.5-.7.7s-.7.3-1.2.3h-2.7,0ZM695.2,72.8h1.8c.3,0,.6,0,.7-.3.2-.2.2-.4.2-.7s0-.3-.1-.5-.2-.3-.3-.4c-.1,0-.3-.2-.5-.2h-1.8v2h0ZM695.2,75.7h1.9c.2,0,.4,0,.6-.2.2-.1.3-.2.4-.4,0-.2.1-.3.1-.5s0-.4-.1-.5-.2-.3-.4-.4-.4-.2-.6-.2h-1.9v2.2h0Z"/>
  <path class="st19" d="M699.3,76.4l2.4-6.3h1l2.4,6.3h-1l-.5-1.4h-2.9l-.5,1.4h-1ZM701,74.3h2.3l-1.2-3.3-1.2,3.3h0Z"/>
  <path class="st19" d="M708,76.6c-.3,0-.7,0-1-.2s-.6-.3-.9-.5-.4-.5-.5-.8l.8-.2c0,.2.2.4.4.6s.4.3.6.3c.2,0,.5,0,.7,0s.5,0,.7-.1.4-.2.5-.4c.1-.2.2-.4.2-.6s0-.5-.3-.6c-.2-.2-.5-.3-1-.4l-.8-.2c-.3,0-.6-.2-.9-.3-.3-.1-.5-.3-.7-.5s-.3-.6-.3-.9.1-.7.3-.9c.2-.2.5-.4.9-.6.4-.1.7-.2,1.1-.2s.6,0,.9.1.5.2.8.4c.2.2.4.4.5.7l-.8.2c-.1-.2-.3-.4-.6-.5s-.5-.2-.8-.2-.4,0-.7.1-.4.2-.5.3-.2.3-.2.6,0,.4.2.5c.1.1.3.2.5.3.2,0,.4.1.7.2l.7.2c.3,0,.6.2.9.3.3.1.5.3.7.6.2.2.3.6.3,1s0,.6-.2.8-.3.4-.6.6c-.2.2-.5.3-.8.4-.3,0-.6.1-.9.1h0Z"/>
  <path class="st19" d="M711.5,76.4v-6.3h4.3v.8h-3.4v1.9h2.5v.8h-2.5v2.1h3.4v.8h-4.3Z"/>
  <path class="st19" d="M716.3,77.2v-.8h3.6v.8h-3.6Z"/>
  <path class="st19" d="M720.7,76.4v-6.3h2c.5,0,1,0,1.4.2.4,0,.7.3.9.6.2.3.3.7.3,1.2s-.1.9-.3,1.2c-.2.3-.5.5-.9.6-.4,0-.8.2-1.4.2h-1.1v2.5h-.9,0ZM721.5,73.2h1.2c.3,0,.6,0,.8,0,.2,0,.4-.2.6-.3.2-.2.2-.4.2-.8s0-.6-.2-.8c-.2-.2-.3-.3-.6-.3s-.5,0-.8,0h-1.2v2.3h0Z"/>
  <path class="st19" d="M729.1,76.6c-.6,0-1.1-.1-1.6-.4s-.8-.7-1-1.2-.4-1.1-.4-1.7.1-1.2.4-1.7.6-.9,1-1.2c.4-.3,1-.4,1.6-.4s1.1.1,1.6.4.8.7,1,1.2.4,1.1.4,1.7-.1,1.2-.4,1.7-.6.9-1,1.2c-.4.3-1,.4-1.6.4ZM729.1,75.8c.4,0,.7,0,1-.3.3-.2.6-.5.7-.9s.3-.8.3-1.4,0-1-.3-1.4-.4-.7-.7-.8-.7-.3-1-.3-.7,0-1,.3-.6.5-.7.8-.3.8-.3,1.4,0,1,.3,1.4.4.7.7.9.7.3,1,.3Z"/>
  <path class="st19" d="M735.3,76.6c-.3,0-.7,0-1-.2s-.6-.3-.9-.5-.4-.5-.5-.8l.8-.2c0,.2.2.4.4.6s.4.3.6.3c.2,0,.5,0,.7,0s.5,0,.7-.1.4-.2.5-.4c.1-.2.2-.4.2-.6s0-.5-.3-.6c-.2-.2-.5-.3-1-.4l-.8-.2c-.3,0-.6-.2-.9-.3-.3-.1-.5-.3-.7-.5s-.3-.6-.3-.9.1-.7.3-.9c.2-.2.5-.4.9-.6.4-.1.7-.2,1.1-.2s.6,0,.9.1.5.2.8.4c.2.2.4.4.5.7l-.8.2c-.1-.2-.3-.4-.6-.5s-.5-.2-.8-.2-.4,0-.7.1-.4.2-.5.3-.2.3-.2.6,0,.4.2.5c.1.1.3.2.5.3.2,0,.4.1.7.2l.7.2c.3,0,.6.2.9.3.3.1.5.3.7.6.2.2.3.6.3,1s0,.6-.2.8-.3.4-.6.6c-.2.2-.5.3-.8.4-.3,0-.6.1-.9.1h0Z"/>
  <path class="st19" d="M739.1,72.9c-.2,0-.3,0-.4-.2s-.2-.3-.2-.4,0-.3.2-.4.3-.2.4-.2.3,0,.4.2.2.3.2.4,0,.3-.2.4-.3.2-.4.2ZM739.1,76.6c-.2,0-.3,0-.4-.2s-.2-.3-.2-.4,0-.3.2-.4.3-.2.4-.2.3,0,.4.2.2.3.2.4,0,.3-.2.4-.3.2-.4.2Z"/>
  <path class="st19" d="M741.1,72.9c-.2,0-.3,0-.4-.2s-.2-.3-.2-.4,0-.3.2-.4.3-.2.4-.2.3,0,.4.2.2.3.2.4,0,.3-.2.4-.3.2-.4.2ZM741.1,76.6c-.2,0-.3,0-.4-.2s-.2-.3-.2-.4,0-.3.2-.4.3-.2.4-.2.3,0,.4.2.2.3.2.4,0,.3-.2.4-.3.2-.4.2Z"/>
  <path class="st19" d="M744.1,76.4v-4.8h-1.7v-.6c.3,0,.6,0,.8,0,.3,0,.5-.1.7-.3.2-.1.3-.3.4-.6h.5v6.3h-.8,0Z"/>
  <path class="st19" d="M747.9,76.4c.2-.2.3-.5.5-.7.1-.2.3-.4.4-.6.2-.2.3-.4.4-.7-.2,0-.3,0-.5,0-.4,0-.8,0-1.1-.3s-.6-.5-.8-.8-.3-.7-.3-1.1,0-.8.3-1.1.5-.6.8-.8.7-.3,1.1-.3.8,0,1.2.3c.3.2.6.5.8.8s.3.7.3,1.1,0,.6-.2.9c0,0,0,.2-.2.4-.1.2-.3.5-.4.8s-.4.6-.6,1c-.2.4-.5.7-.7,1.1h-1ZM748.7,73.7c.3,0,.5,0,.7-.2s.4-.3.5-.5.2-.5.2-.7,0-.5-.2-.7-.3-.4-.5-.5c-.2-.1-.5-.2-.7-.2s-.5,0-.7.2c-.2.1-.4.3-.5.5s-.2.5-.2.7,0,.5.2.7.3.4.5.5.5.2.7.2Z"/>
  <path class="st19" d="M751.8,76.4v-.7c.8-.6,1.4-1.1,1.9-1.5.5-.5.9-.9,1.2-1.3s.4-.8.4-1.2,0-.6-.3-.8c-.2-.2-.5-.3-.9-.3s-.6,0-.8.2c-.3.2-.4.4-.5.8l-.8-.2c.1-.5.4-.8.7-1.1.4-.3.8-.4,1.4-.4s.7,0,1,.2c.3.1.5.3.7.6.2.2.3.6.3.9s0,.7-.3,1.1c-.2.3-.4.7-.7,1s-.7.7-1.1,1-.8.7-1.3,1h3.5v.7h-4.6Z"/>
  <path class="st19" d="M758.8,76.4v-4.8h-1.7v-.6c.3,0,.6,0,.8,0,.3,0,.5-.1.7-.3.2-.1.3-.3.4-.6h.5v6.3h-.8,0Z"/>
  <path class="st19" d="M763.4,76.6c-.8,0-1.4-.3-1.7-.8-.4-.5-.6-1.3-.6-2.2s0-.9.1-1.3c0-.4.2-.8.4-1.1.2-.3.5-.6.8-.8.3-.2.7-.3,1.2-.3s.8,0,1.1.3c.3.2.5.4.6.7l-.8.2c0-.2-.2-.3-.4-.4-.2,0-.4-.2-.7-.2-.5,0-.9.2-1.1.7s-.4,1-.4,1.8c.2-.2.3-.4.6-.6.3-.2.6-.3,1-.3s.7,0,1,.3.5.4.7.8c.2.3.3.7.3,1.1s0,.8-.3,1.1-.4.6-.8.8c-.3.2-.7.3-1.2.3h0ZM763.4,75.9c.4,0,.8-.1,1-.4s.4-.6.4-1.1-.1-.8-.4-1.1-.6-.4-1-.4-.8.1-1,.4-.4.6-.4,1.1.1.8.4,1.1.6.4,1,.4Z"/>
  <path class="st19" d="M769.1,76.6c-.4,0-.8,0-1.2-.2s-.6-.4-.8-.6-.3-.6-.3-1,.1-.8.3-1.1.5-.5.8-.6c-.2-.2-.3-.3-.4-.6s-.2-.4-.2-.7,0-.6.2-.9c.2-.3.4-.5.6-.6.3-.2.5-.2.9-.2s.6,0,.9.2.5.4.6.6c.2.3.2.6.2.9s0,.5-.2.7c0,.2-.2.4-.4.6.3.1.6.3.8.6.2.3.3.6.3,1.1s0,.8-.3,1-.5.5-.8.6c-.3.2-.8.2-1.2.2h0ZM769.1,75.9c.5,0,.8-.1,1.1-.3s.4-.5.4-.9-.1-.7-.4-.9-.6-.3-1.1-.3-.8.1-1.1.3-.4.5-.4.9.1.7.4.9.6.3,1.1.3ZM769.1,72.7c.3,0,.5,0,.7-.3s.3-.4.3-.7,0-.5-.3-.7-.4-.3-.7-.3-.5,0-.7.3-.3.4-.3.7,0,.5.3.7.4.3.7.3Z"/>
  <path class="st19" d="M775.1,76.6c-.8,0-1.4-.3-1.9-.8-.4-.6-.6-1.4-.6-2.4s.2-1.9.6-2.4,1-.8,1.9-.8,1.4.3,1.9.8.6,1.4.6,2.4-.2,1.9-.6,2.4-1,.8-1.9.8ZM775.1,75.9c.4,0,.8-.1,1-.4l-2.5-3.6c0,.2-.1.4-.1.7s0,.5,0,.8c0,.8.1,1.5.4,1.9.3.4.7.7,1.2.7h0ZM776.5,74.6c.1-.4.2-.8.2-1.4,0-.8-.1-1.5-.4-1.9s-.7-.7-1.2-.7-.8.1-1,.4l2.5,3.6h0Z"/>
  <path class="st19" d="M781.2,76.6c-.8,0-1.4-.3-1.9-.8-.4-.6-.6-1.4-.6-2.4s.2-1.9.6-2.4,1-.8,1.9-.8,1.4.3,1.9.8.6,1.4.6,2.4-.2,1.9-.6,2.4-1,.8-1.9.8ZM781.2,75.9c.4,0,.8-.1,1-.4l-2.5-3.6c0,.2-.1.4-.1.7s0,.5,0,.8c0,.8.1,1.5.4,1.9.3.4.7.7,1.2.7h0ZM782.7,74.6c.1-.4.2-.8.2-1.4,0-.8-.1-1.5-.4-1.9s-.7-.7-1.2-.7-.8.1-1,.4l2.5,3.6h0Z"/>
  <path class="st19" d="M786.3,76.4v-4.8h-1.7v-.6c.3,0,.6,0,.8,0,.3,0,.5-.1.7-.3.2-.1.3-.3.4-.6h.5v6.3h-.8,0Z"/>
  <path class="st19" d="M788.2,76.4l2.5-6.3h.8l-2.5,6.3h-.8Z"/>
  <path class="st19" d="M793.7,76.4v-4.8h-1.7v-.6c.3,0,.6,0,.8,0,.3,0,.5-.1.7-.3.2-.1.3-.3.4-.6h.5v6.3h-.8,0Z"/>
  <path class="st19" d="M795.8,76.4v-.7c.8-.6,1.4-1.1,1.9-1.5.5-.5.9-.9,1.2-1.3s.4-.8.4-1.2,0-.6-.3-.8c-.2-.2-.5-.3-.9-.3s-.6,0-.8.2c-.3.2-.4.4-.5.8l-.8-.2c.1-.5.4-.8.7-1.1.4-.3.8-.4,1.4-.4s.7,0,1,.2c.3.1.5.3.7.6.2.2.3.6.3.9s0,.7-.3,1.1c-.2.3-.4.7-.7,1s-.7.7-1.1,1-.8.7-1.3,1h3.5v.7h-4.6Z"/>
  <path class="st19" d="M801.5,76.4l2.8-5.6h-3.5v-.8h4.4v.8l-2.6,5.6h-1Z"/>
  <path class="st19" d="M808.5,76.6c-.8,0-1.4-.3-1.9-.8-.4-.6-.6-1.4-.6-2.4s.2-1.9.6-2.4,1-.8,1.9-.8,1.4.3,1.9.8.6,1.4.6,2.4-.2,1.9-.6,2.4-1,.8-1.9.8ZM808.5,75.9c.4,0,.8-.1,1-.4l-2.5-3.6c0,.2-.1.4-.1.7s0,.5,0,.8c0,.8.1,1.5.4,1.9.3.4.7.7,1.2.7h0ZM810,74.6c.1-.4.2-.8.2-1.4,0-.8-.1-1.5-.4-1.9s-.7-.7-1.2-.7-.8.1-1,.4l2.5,3.6h0Z"/>
  <path class="st19" d="M814.7,76.6c-.8,0-1.4-.3-1.9-.8-.4-.6-.6-1.4-.6-2.4s.2-1.9.6-2.4,1-.8,1.9-.8,1.4.3,1.9.8.6,1.4.6,2.4-.2,1.9-.6,2.4-1,.8-1.9.8ZM814.7,75.9c.4,0,.8-.1,1-.4l-2.5-3.6c0,.2-.1.4-.1.7s0,.5,0,.8c0,.8.1,1.5.4,1.9.3.4.7.7,1.2.7h0ZM816.2,74.6c.1-.4.2-.8.2-1.4,0-.8-.1-1.5-.4-1.9s-.7-.7-1.2-.7-.8.1-1,.4l2.5,3.6h0Z"/>
  <path class="st19" d="M819.8,76.4v-4.8h-1.7v-.6c.3,0,.6,0,.8,0,.3,0,.5-.1.7-.3.2-.1.3-.3.4-.6h.5v6.3h-.8,0Z"/>
  <path class="st8" d="M41.8,17.6V3.7h2v7l6.3-7h2.4l-5.3,5.8,5.9,8.1h-2.4l-4.8-6.7-2.1,2.3v4.4h-2Z"/>
  <path class="st7" d="M53.5,17.6l5.2-13.9h2.2l5.2,13.9h-2.1l-1.1-3h-6.3l-1.1,3h-2.1ZM57.2,12.9h5.1l-2.6-7.2s-2.6,7.2-2.6,7.2Z"/>
  <path class="st5" d="M67.9,17.6V3.7h4.3c1.1,0,2.1.1,3,.3.9.2,1.5.6,2,1.2.5.6.7,1.5.7,2.6s-.2,2-.7,2.6c-.5.6-1.2,1-2,1.2-.9.2-1.9.3-3,.3h-2.4v5.5h-2,0ZM69.8,10.4h2.6c.7,0,1.3,0,1.8-.1s1-.3,1.3-.7.5-.9.5-1.7-.2-1.3-.5-1.7-.8-.6-1.3-.7-1.2-.2-1.8-.2h-2.6v5h0Z"/>
  <path class="st1" d="M80.2,17.6v-1.5h2V5.2h-2v-1.5h5.9v1.5h-2v10.8h2v1.5h-5.9Z"/>
  <path class="st18" d="M92.3,17.6V5.4h-4.6v-1.7h11.2v1.7h-4.6v12.2h-2Z"/>
  <path class="st10" d="M100.7,17.6V3.7h9.4v1.7h-7.5v4.2h5.5v1.7h-5.5v4.6h7.5v1.7h-9.4Z"/>
  <path class="st11" d="M112.5,17.6V3.7h2v12.2h7.5v1.7h-9.4Z"/>
  <path class="st6" d="M124.2,9.8c-.4,0-.7-.1-.9-.4s-.4-.6-.4-1,.1-.7.4-.9.6-.4.9-.4.7.1,1,.4.4.6.4.9-.1.7-.4,1-.6.4-1,.4ZM124.2,17.9c-.4,0-.7-.1-.9-.4s-.4-.6-.4-.9.1-.7.4-1c.3-.3.6-.4.9-.4s.7.1,1,.4c.3.3.4.6.4,1s-.1.7-.4.9-.6.4-1,.4Z"/>
  <path class="st22" d="M128.5,9.8c-.4,0-.7-.1-.9-.4s-.4-.6-.4-1,.1-.7.4-.9.6-.4.9-.4.7.1,1,.4.4.6.4.9-.1.7-.4,1-.6.4-1,.4ZM128.5,17.9c-.4,0-.7-.1-.9-.4s-.4-.6-.4-.9.1-.7.4-1c.3-.3.6-.4.9-.4s.7.1,1,.4c.3.3.4.6.4,1s-.1.7-.4.9-.6.4-1,.4Z"/>
  <path class="st14" d="M138,17.9c-1.3,0-2.4-.3-3.4-.9s-1.7-1.5-2.2-2.6-.8-2.3-.8-3.8.3-2.7.8-3.8c.5-1.1,1.3-1.9,2.3-2.5s2.1-.9,3.4-.9,2.2.3,3.2.8,1.6,1.3,2.1,2.3l-1.7.6c-.3-.6-.8-1.1-1.4-1.5-.6-.4-1.4-.6-2.3-.6s-1.6.2-2.2.6-1.2,1-1.6,1.9c-.4.8-.6,1.8-.6,3s.2,2.2.6,3c.4.8.9,1.5,1.6,1.9s1.4.7,2.3.7,1.7-.2,2.3-.6,1.1-.9,1.4-1.5l1.7.6c-.5,1-1.2,1.8-2.2,2.3s-2.1.8-3.3.8h0Z"/>
  <path class="st4" d="M145.9,17.6V3.7h2v5.9h7.3V3.7h2v13.9h-2v-6.3h-7.3v6.3h-2Z"/>
  <path class="st23" d="M158.9,17.6l5.2-13.9h2.2l5.2,13.9h-2.1l-1.1-3h-6.3l-1.1,3h-2.1ZM162.6,12.9h5.1l-2.6-7.2-2.6,7.2Z"/>
  <path class="st12" d="M173.3,17.6V3.7h4.4c1.1,0,2.1.1,3,.3.9.2,1.6.6,2,1.2.5.6.7,1.5.7,2.6s-.2,2-.7,2.6c-.5.6-1.2,1-2,1.2-.9.2-1.9.3-3,.3h-2.4v5.5h-2,0ZM175.3,10.4h2.6c.7,0,1.3,0,1.8-.1s1-.3,1.3-.7.5-.9.5-1.7-.2-1.3-.5-1.7-.8-.6-1.3-.7c-.5-.1-1.1-.2-1.8-.2h-2.6v5h0Z"/>
  <path class="st20" d="M189.1,17.6V5.4h-4.6v-1.7h11.2v1.7h-4.6v12.2h-2Z"/>
  <path class="st9" d="M197.5,17.6V3.7h9.4v1.7h-7.5v4.2h5.5v1.7h-5.5v4.6h7.5v1.7h-9.4Z"/>
  <path class="st0" d="M209.3,17.6V3.7h4.4c1.1,0,2.1,0,3,.3s1.6.6,2,1.2c.5.6.7,1.4.7,2.5s-.1,1.2-.3,1.8c-.2.5-.6,1-1.1,1.4-.6.4-1.4.6-2.4.8l4.3,6h-2.4l-4.2-5.9h-2.1v5.9h-2ZM211.2,10.1h2.6c.7,0,1.3,0,1.8-.1.6-.1,1-.3,1.3-.7.3-.3.5-.9.5-1.6s-.2-1.2-.5-1.6-.8-.6-1.3-.7c-.6,0-1.2-.2-1.8-.2h-2.6v4.8h0Z"/>
  <path class="st2" d="M222.7,9.8c-.4,0-.7-.1-.9-.4s-.4-.6-.4-1,.1-.7.4-.9.6-.4.9-.4.7.1,1,.4.4.6.4.9-.1.7-.4,1-.6.4-1,.4ZM222.7,17.9c-.4,0-.7-.1-.9-.4s-.4-.6-.4-.9.1-.7.4-1c.3-.3.6-.4.9-.4s.7.1,1,.4c.3.3.4.6.4,1s-.1.7-.4.9-.6.4-1,.4Z"/>
  <path class="st13" d="M227,9.8c-.4,0-.7-.1-.9-.4s-.4-.6-.4-1,.1-.7.4-.9.6-.4.9-.4.7.1,1,.4.4.6.4.9-.1.7-.4,1-.6.4-1,.4ZM227,17.9c-.4,0-.7-.1-.9-.4s-.4-.6-.4-.9.1-.7.4-1c.3-.3.6-.4.9-.4s.7.1,1,.4c.3.3.4.6.4,1s-.1.7-.4.9-.6.4-1,.4Z"/>
  <path class="st17" d="M249,15.3v1.2h-8.8v2.9h-1.4v-2.9h-8.7v-1.2h8.7v-1.4h-6v-5.9h13.6v5.9h-6.2v1.4h8.8ZM249,5.5v1.2h-18.9v-1.2h5.5c-.2-.7-.6-1.5-1-2.2l.7-.2h-4v-1.2h7.4V0h1.9c0,.3-.1.4-.4.4v1.5h7.6v1.2h-3.9l1,.4c0,.1-.2.2-.4.2-.3.5-.7,1.3-1.1,1.9h5.7ZM234.1,9v1.4h10.8v-1.4h-10.8ZM234.1,11.4v1.5h10.8v-1.5h-10.8ZM242.5,5.5c-.2,0-.4-.2-.5-.2.4-.6.8-1.5,1.1-2.2h-7.2c.5.7.9,1.7,1,2.3l-.4.2h6,0Z"/>
  <polygon class="st19" points="98.5 25.1 111.1 25.1 116.8 25.1 116.8 30.8 116.8 43.5 111.1 43.5 111.1 30.8 98.5 30.8 98.5 25.1"/>
  <polygon class="st19" points="41.8 43.5 41.8 30.8 41.8 25.1 47.4 25.1 60.1 25.1 60.1 30.8 47.4 30.8 47.4 43.5 41.8 43.5"/>
  <polygon class="st19" points="60.1 99.7 47.4 99.7 41.8 99.7 41.8 94.1 41.8 81.4 47.4 81.4 47.4 94.1 60.1 94.1 60.1 99.7"/>
  <polygon class="st19" points="116.3 81.4 116.3 94.1 116.3 99.7 110.6 99.7 97.9 99.7 97.9 94.1 110.6 94.1 110.6 81.4 116.3 81.4"/>
  <path class="st19" d="M64.4,66.1h0l3.9-3.9-3.9-3.9h-12.9v-23.9h56.2v24.2h-13.1l-3.9,3.9,3.9,3.9h13.1v24.2h-56.2v-24.5h12.9ZM81.3,57.4v9.8l18.7,18.7v-9.8l-13.8-13.8,13.8-13.8v-9.8l-18.7,18.7h0ZM58.9,85.9l18.7-18.7v-9.8l-18.7-18.7v9.8l13.8,13.8-13.8,13.8s0,9.8,0,9.8Z"/>
  <path class="st19" d="M224,37.9l24.5,24.5-24.5,24.5-24.5-24.5,24.5-24.5h0ZM226.6,53.7h-5v10.4h0l2.5,2.5,2.5-2.5v-10.4h0ZM224.1,76.2l2.5-2.5h-5l2.5,2.5h0ZM220.9,72.6h6.2l11.9-11.9h-6.2l-8.8,8.8-8.8-8.8h-6.2l11.9,11.9h0Z"/>
  <path class="st19" d="M158.1,37.9l24.5,24.5-24.5,24.5-24.5-24.5s24.5-24.5,24.5-24.5ZM158,49.5l-2.5,2.5h5l-2.5-2.5h0ZM155.5,71.9h5v-10.4h0l-2.5-2.5-2.5,2.5v10.4h0ZM158.1,56.1l8.8,8.8h6.2l-11.9-11.9h-6.3l-11.9,11.9h6.2l8.8-8.8h0Z"/>
</svg>