<?xml version="1.0" encoding="UTF-8"?>
<svg id="Ebene_2" xmlns="http://www.w3.org/2000/svg" version="1.1" xmlns:xlink="http://www.w3.org/1999/xlink" viewBox="0 0 828.8 432">
  <!-- Generator: Adobe Illustrator 30.0.0, SVG Export Plug-In . SVG Version: 2.1.1 Build 123)  -->
  <defs>
    <style>
      .st0 {
        fill: url(#Unbenannter_Verlauf_20);
      }

      .st1 {
        fill: url(#Unbenannter_Verlauf_8);
      }

      .st2 {
        fill: url(#Unbenannter_Verlauf_21);
      }

      .st3 {
        fill: url(#Unbenannter_Verlauf_3);
      }

      .st4 {
        fill: url(#Unbenannter_Verlauf_15);
      }

      .st5 {
        fill: url(#Unbenannter_Verlauf_7);
      }

      .st6 {
        fill: url(#Unbenannter_Verlauf_12);
      }

      .st7 {
        fill: url(#Unbenannter_Verlauf_6);
      }

      .st8 {
        fill: url(#Unbenannter_Verlauf_5);
      }

      .st9 {
        fill: url(#Unbenannter_Verlauf_19);
      }

      .st10 {
        fill: url(#Unbenannter_Verlauf_10);
      }

      .st11 {
        fill: url(#Unbenannter_Verlauf_11);
      }

      .st12 {
        fill: url(#Unbenannter_Verlauf_17);
      }

      .st13 {
        fill: url(#Unbenannter_Verlauf_22);
      }

      .st14 {
        fill: url(#Unbenannter_Verlauf_14);
      }

      .st15 {
        fill: url(#Unbenannter_Verlauf_4);
      }

      .st16 {
        fill: url(#Unbenannter_Verlauf);
      }

      .st17 {
        fill: url(#Unbenannter_Verlauf_23);
      }

      .st18 {
        fill: url(#Unbenannter_Verlauf_9);
      }

      .st19 {
        fill: #ededed;
      }

      .st20 {
        fill: url(#Unbenannter_Verlauf_18);
      }

      .st21 {
        fill: url(#Unbenannter_Verlauf_2);
      }

      .st22 {
        fill: url(#Unbenannter_Verlauf_13);
      }

      .st23 {
        fill: url(#Unbenannter_Verlauf_16);
      }
    </style>
    <linearGradient id="Unbenannter_Verlauf" data-name="Unbenannter Verlauf" x1="-.3" y1="370.5" x2="819.5" y2="370.5" gradientTransform="translate(0 432.9) scale(1 -1)" gradientUnits="userSpaceOnUse">
      <stop offset="0" stop-color="#48497b"/>
      <stop offset="1" stop-color="#18073a"/>
    </linearGradient>
    <linearGradient id="Unbenannter_Verlauf_2" data-name="Unbenannter Verlauf 2" x1="-.3" y1="370.5" x2="819.5" y2="370.5" gradientTransform="translate(0 432.9) scale(1 -1)" gradientUnits="userSpaceOnUse">
      <stop offset="0" stop-color="#48497b"/>
      <stop offset="1" stop-color="#18073a"/>
    </linearGradient>
    <linearGradient id="Unbenannter_Verlauf_3" data-name="Unbenannter Verlauf 3" x1="-.3" y1="208.1" x2="819.5" y2="208.1" gradientTransform="translate(0 432.9) scale(1 -1)" gradientUnits="userSpaceOnUse">
      <stop offset="0" stop-color="#48497b"/>
      <stop offset="1" stop-color="#18073a"/>
    </linearGradient>
    <linearGradient id="Unbenannter_Verlauf_4" data-name="Unbenannter Verlauf 4" x1="0" y1="370.5" x2="819.8" y2="370.5" gradientTransform="translate(0 432.9) scale(1 -1)" gradientUnits="userSpaceOnUse">
      <stop offset="0" stop-color="#48497b"/>
      <stop offset="1" stop-color="#18073a"/>
    </linearGradient>
    <linearGradient id="Unbenannter_Verlauf_5" data-name="Unbenannter Verlauf 5" x1="-15.5" y1="422.3" x2="803.7" y2="422.3" gradientTransform="translate(0 432.9) scale(1 -1)" gradientUnits="userSpaceOnUse">
      <stop offset="0" stop-color="#48497b"/>
      <stop offset="1" stop-color="#18073a"/>
    </linearGradient>
    <linearGradient id="Unbenannter_Verlauf_6" data-name="Unbenannter Verlauf 6" x1="-15.5" y1="422.3" x2="803.7" y2="422.3" gradientTransform="translate(0 432.9) scale(1 -1)" gradientUnits="userSpaceOnUse">
      <stop offset="0" stop-color="#48497b"/>
      <stop offset="1" stop-color="#18073a"/>
    </linearGradient>
    <linearGradient id="Unbenannter_Verlauf_7" data-name="Unbenannter Verlauf 7" x1="-15.5" y1="422.3" x2="803.7" y2="422.3" gradientTransform="translate(0 432.9) scale(1 -1)" gradientUnits="userSpaceOnUse">
      <stop offset="0" stop-color="#48497b"/>
      <stop offset="1" stop-color="#18073a"/>
    </linearGradient>
    <linearGradient id="Unbenannter_Verlauf_8" data-name="Unbenannter Verlauf 8" x1="-15.5" y1="422.3" x2="803.7" y2="422.3" gradientTransform="translate(0 432.9) scale(1 -1)" gradientUnits="userSpaceOnUse">
      <stop offset="0" stop-color="#48497b"/>
      <stop offset="1" stop-color="#18073a"/>
    </linearGradient>
    <linearGradient id="Unbenannter_Verlauf_9" data-name="Unbenannter Verlauf 9" x1="-15.5" y1="422.3" x2="803.7" y2="422.3" gradientTransform="translate(0 432.9) scale(1 -1)" gradientUnits="userSpaceOnUse">
      <stop offset="0" stop-color="#48497b"/>
      <stop offset="1" stop-color="#18073a"/>
    </linearGradient>
    <linearGradient id="Unbenannter_Verlauf_10" data-name="Unbenannter Verlauf 10" x1="-15.5" y1="422.3" x2="803.7" y2="422.3" gradientTransform="translate(0 432.9) scale(1 -1)" gradientUnits="userSpaceOnUse">
      <stop offset="0" stop-color="#48497b"/>
      <stop offset="1" stop-color="#18073a"/>
    </linearGradient>
    <linearGradient id="Unbenannter_Verlauf_11" data-name="Unbenannter Verlauf 11" x1="-15.5" y1="422.3" x2="803.7" y2="422.3" gradientTransform="translate(0 432.9) scale(1 -1)" gradientUnits="userSpaceOnUse">
      <stop offset="0" stop-color="#48497b"/>
      <stop offset="1" stop-color="#18073a"/>
    </linearGradient>
    <linearGradient id="Unbenannter_Verlauf_12" data-name="Unbenannter Verlauf 12" x1="-15.5" y1="420.5" x2="803.7" y2="420.5" gradientTransform="translate(0 432.9) scale(1 -1)" gradientUnits="userSpaceOnUse">
      <stop offset="0" stop-color="#48497b"/>
      <stop offset="1" stop-color="#18073a"/>
    </linearGradient>
    <linearGradient id="Unbenannter_Verlauf_13" data-name="Unbenannter Verlauf 13" x1="-15.5" y1="420.5" x2="803.7" y2="420.5" gradientTransform="translate(0 432.9) scale(1 -1)" gradientUnits="userSpaceOnUse">
      <stop offset="0" stop-color="#48497b"/>
      <stop offset="1" stop-color="#18073a"/>
    </linearGradient>
    <linearGradient id="Unbenannter_Verlauf_14" data-name="Unbenannter Verlauf 14" x1="-15.5" y1="422.3" x2="803.7" y2="422.3" gradientTransform="translate(0 432.9) scale(1 -1)" gradientUnits="userSpaceOnUse">
      <stop offset="0" stop-color="#48497b"/>
      <stop offset="1" stop-color="#18073a"/>
    </linearGradient>
    <linearGradient id="Unbenannter_Verlauf_15" data-name="Unbenannter Verlauf 15" x1="-15.5" y1="422.3" x2="803.7" y2="422.3" gradientTransform="translate(0 432.9) scale(1 -1)" gradientUnits="userSpaceOnUse">
      <stop offset="0" stop-color="#48497b"/>
      <stop offset="1" stop-color="#18073a"/>
    </linearGradient>
    <linearGradient id="Unbenannter_Verlauf_16" data-name="Unbenannter Verlauf 16" x1="-15.5" y1="422.3" x2="803.7" y2="422.3" gradientTransform="translate(0 432.9) scale(1 -1)" gradientUnits="userSpaceOnUse">
      <stop offset="0" stop-color="#48497b"/>
      <stop offset="1" stop-color="#18073a"/>
    </linearGradient>
    <linearGradient id="Unbenannter_Verlauf_17" data-name="Unbenannter Verlauf 17" x1="-15.5" y1="422.3" x2="803.7" y2="422.3" gradientTransform="translate(0 432.9) scale(1 -1)" gradientUnits="userSpaceOnUse">
      <stop offset="0" stop-color="#48497b"/>
      <stop offset="1" stop-color="#18073a"/>
    </linearGradient>
    <linearGradient id="Unbenannter_Verlauf_18" data-name="Unbenannter Verlauf 18" x1="-15.5" y1="422.3" x2="803.7" y2="422.3" gradientTransform="translate(0 432.9) scale(1 -1)" gradientUnits="userSpaceOnUse">
      <stop offset="0" stop-color="#48497b"/>
      <stop offset="1" stop-color="#18073a"/>
    </linearGradient>
    <linearGradient id="Unbenannter_Verlauf_19" data-name="Unbenannter Verlauf 19" x1="-15.5" y1="422.3" x2="803.7" y2="422.3" gradientTransform="translate(0 432.9) scale(1 -1)" gradientUnits="userSpaceOnUse">
      <stop offset="0" stop-color="#48497b"/>
      <stop offset="1" stop-color="#18073a"/>
    </linearGradient>
    <linearGradient id="Unbenannter_Verlauf_20" data-name="Unbenannter Verlauf 20" x1="-15.5" y1="422.3" x2="803.7" y2="422.3" gradientTransform="translate(0 432.9) scale(1 -1)" gradientUnits="userSpaceOnUse">
      <stop offset="0" stop-color="#48497b"/>
      <stop offset="1" stop-color="#18073a"/>
    </linearGradient>
    <linearGradient id="Unbenannter_Verlauf_21" data-name="Unbenannter Verlauf 21" x1="-15.5" y1="420.5" x2="803.7" y2="420.5" gradientTransform="translate(0 432.9) scale(1 -1)" gradientUnits="userSpaceOnUse">
      <stop offset="0" stop-color="#48497b"/>
      <stop offset="1" stop-color="#18073a"/>
    </linearGradient>
    <linearGradient id="Unbenannter_Verlauf_22" data-name="Unbenannter Verlauf 22" x1="-15.5" y1="420.5" x2="803.7" y2="420.5" gradientTransform="translate(0 432.9) scale(1 -1)" gradientUnits="userSpaceOnUse">
      <stop offset="0" stop-color="#48497b"/>
      <stop offset="1" stop-color="#18073a"/>
    </linearGradient>
    <linearGradient id="Unbenannter_Verlauf_23" data-name="Unbenannter Verlauf 23" x1="-15.5" y1="423.2" x2="803.7" y2="423.2" gradientTransform="translate(0 432.9) scale(1 -1)" gradientUnits="userSpaceOnUse">
      <stop offset="0" stop-color="#48497b"/>
      <stop offset="1" stop-color="#18073a"/>
    </linearGradient>
  </defs>
  <polygon class="st16" points="270.9 17.6 259.1 17.6 299.1 57.6 299.1 57.6 303.9 62.4 303.9 62.4 303.9 62.4 299.1 67.3 299.1 67.3 259.1 107.3 270.9 107.3 315.7 62.4 270.9 17.6"/>
  <polygon class="st21" points="292.4 17.6 280.6 17.6 320.6 57.6 320.6 57.6 325.4 62.4 325.4 62.4 325.4 62.4 320.6 67.3 320.6 67.3 280.6 107.3 292.4 107.3 337.2 62.4 292.4 17.6"/>
  <polygon class="st3" points="302 17.6 342 57.6 342 57.6 346.9 62.4 346.9 62.4 346.9 62.4 342 67.3 342 67.3 302 107.3 741.6 107.3 769 134.7 769 218.2 792.1 241.3 792.1 309.9 804.8 322.5 804.8 432 828.8 432 828.8 309.9 828.8 307.9 828.8 107.3 828.8 94.1 828.8 17.6 302 17.6"/>
  <polygon class="st15" points="249.4 17.6 34.7 17.6 24.5 17.6 0 17.6 0 82.7 24.5 107.3 249.4 107.3 294.2 62.4 249.4 17.6"/>
  <path class="st19" d="M5.9,31v-6.3h1.7c.5,0,1,0,1.4.2.4.1.8.3,1.1.5s.6.6.7,1,.3.9.3,1.5,0,1.1-.3,1.5-.4.7-.7,1c-.3.2-.7.4-1.1.5s-.9.2-1.4.2h-1.7ZM6.8,30.2h.8c.3,0,.7,0,1,0,.3,0,.6-.2.8-.3s.4-.4.6-.7c.1-.3.2-.8.2-1.3s0-1-.2-1.3-.3-.6-.6-.7c-.2-.2-.5-.3-.8-.3-.3,0-.6,0-.9,0h-.8v4.8h0Z"/>
  <path class="st19" d="M11.3,31l2.4-6.3h1l2.4,6.3h-1l-.5-1.4h-2.9l-.5,1.4s-.9,0-.9,0ZM13,28.8h2.3l-1.2-3.3s-1.2,3.3-1.2,3.3Z"/>
  <path class="st19" d="M18.7,31v-5.6h-2.1v-.8h5.1v.8h-2.1v5.6h-.9Z"/>
  <path class="st19" d="M21.3,31l2.4-6.3h1l2.4,6.3h-1l-.5-1.4h-2.9l-.5,1.4s-1,0-.9,0ZM23,28.8h2.3l-1.2-3.3s-1.2,3.3-1.2,3.3Z"/>
  <path class="st19" d="M27.8,31v-6.3h2.5c.5,0,.8,0,1.1.2.3.1.5.4.6.6s.2.5.2.8,0,.5-.2.8c-.1.2-.3.5-.5.6.3.2.6.4.7.7.2.3.2.6.2.9s0,.6-.2.9c-.2.3-.4.5-.7.7-.3.2-.7.3-1.2.3h-2.7,0ZM28.7,27.4h1.8c.3,0,.6-.1.7-.3.2-.2.2-.4.2-.7s0-.3-.1-.5-.2-.3-.3-.4c-.1-.1-.3-.1-.5-.1h-1.8v2h0ZM28.7,30.2h1.9c.2,0,.4,0,.6-.2s.3-.2.4-.4c0-.2.1-.3.1-.5s0-.4-.1-.5-.2-.3-.4-.4-.4-.2-.6-.2h-1.9v2.2h0Z"/>
  <path class="st19" d="M32.9,31l2.4-6.3h1l2.4,6.3h-1l-.5-1.4h-2.9l-.5,1.4h-1ZM34.6,28.8h2.3l-1.2-3.3s-1.2,3.3-1.2,3.3Z"/>
  <path class="st19" d="M41.5,31.1c-.3,0-.7,0-1-.2-.3-.1-.6-.3-.9-.5s-.4-.5-.5-.8l.8-.2c0,.2.2.4.4.6s.4.3.6.3.5.1.7.1.5,0,.7-.1.4-.2.5-.4c.1-.2.2-.4.2-.6s0-.5-.3-.6c-.2-.1-.5-.3-1-.4l-.8-.2c-.3,0-.6-.2-.9-.3-.3-.1-.5-.3-.7-.5-.2-.2-.3-.5-.3-.9s.1-.7.3-.9c.2-.2.5-.4.9-.6.4-.1.7-.2,1.1-.2s.6,0,.9.1c.3,0,.5.2.8.4.2.2.4.4.5.7l-.8.2c-.1-.2-.3-.4-.6-.5s-.5-.2-.8-.2-.5,0-.7.1c-.2,0-.4.2-.5.3s-.2.3-.2.5,0,.4.2.5c.1.1.3.2.5.3.2,0,.4.1.7.2h.7c.3.2.6.3.9.5s.5.3.7.6.3.6.3,1,0,.5-.2.8-.3.4-.6.6-.5.3-.8.4c-.3,0-.6.1-.9.1h0Z"/>
  <path class="st19" d="M45.1,31v-6.3h4.3v.8h-3.4v1.9h2.5v.8h-2.5v2.1h3.4v.8s-4.3,0-4.3,0Z"/>
  <path class="st19" d="M49.8,31.7v-.8h3.6v.8h-3.6Z"/>
  <path class="st19" d="M54.2,31v-6.3h1.3l2.9,5.4v-5.4h.9v6.3h-1.3l-2.9-5.4v5.4s-.9,0-.9,0Z"/>
  <path class="st19" d="M60.1,31l2.4-6.3h1l2.4,6.3h-.9l-.5-1.4h-2.9l-.5,1.4h-1ZM61.8,28.8h2.3l-1.2-3.3s-1.2,3.3-1.2,3.3Z"/>
  <path class="st19" d="M66.6,31v-6.3h1.5l1.7,5.2,1.7-5.2h1.5v6.3h-.9v-5.4l-1.8,5.4h-.9l-1.8-5.4v5.4h-.9,0Z"/>
  <path class="st19" d="M74.4,31v-6.3h4.3v.8h-3.4v1.9h2.5v.8h-2.5v2.1h3.4v.8s-4.3,0-4.3,0Z"/>
  <path class="st19" d="M80,27.4c-.2,0-.3,0-.4-.2s-.2-.3-.2-.4,0-.3.2-.4.3-.2.4-.2.3,0,.4.2.2.3.2.4,0,.3-.2.4-.3.2-.4.2ZM80,31.1c-.2,0-.3,0-.4-.2s-.2-.3-.2-.4,0-.3.2-.4.3-.2.4-.2.3,0,.4.2.2.3.2.4,0,.3-.2.4-.3.2-.4.2Z"/>
  <path class="st19" d="M81.9,27.4c-.2,0-.3,0-.4-.2s-.2-.3-.2-.4,0-.3.2-.4.3-.2.4-.2.3,0,.4.2.2.3.2.4,0,.3-.2.4-.3.2-.4.2ZM81.9,31.1c-.2,0-.3,0-.4-.2s-.2-.3-.2-.4,0-.3.2-.4.3-.2.4-.2.3,0,.4.2.2.3.2.4,0,.3-.2.4-.3.2-.4.2Z"/>
  <path class="st19" d="M83.7,31v-6.3h1.7c.5,0,1,0,1.4.2.4.1.8.3,1.1.5s.6.6.7,1,.3.9.3,1.5,0,1.1-.3,1.5-.4.7-.7,1c-.3.2-.7.4-1.1.5s-.9.2-1.4.2h-1.7ZM84.5,30.2h.8c.3,0,.7,0,.9,0,.3,0,.6-.2.8-.3s.4-.4.6-.7c.1-.3.2-.8.2-1.3s0-1-.2-1.3-.3-.6-.6-.7-.5-.3-.8-.3c-.3,0-.6,0-.9,0h-.8v4.8h0Z"/>
  <path class="st19" d="M92.1,31.1c-.3,0-.7,0-1-.2-.3-.1-.6-.3-.9-.5s-.4-.5-.5-.8l.8-.2c0,.2.2.4.4.6s.4.3.6.3.4.1.7.1.5,0,.7-.1.4-.2.6-.4c.1-.2.2-.4.2-.6s0-.5-.3-.6c-.2-.1-.5-.3-1-.4l-.8-.2c-.3,0-.6-.2-.9-.3-.3-.1-.5-.3-.7-.5-.2-.2-.3-.5-.3-.9s.1-.7.3-.9c.2-.2.5-.4.9-.6.4-.1.7-.2,1.1-.2s.6,0,.9.1c.3,0,.6.2.8.4.2.2.4.4.5.7l-.8.2c-.1-.2-.3-.4-.6-.5s-.6-.2-.8-.2-.4,0-.7.1c-.2,0-.4.2-.5.3s-.2.3-.2.5,0,.4.2.5c.1.1.3.2.5.3.2,0,.4.1.7.2h.7c.3.2.6.3.9.5.3.1.5.3.7.6s.3.6.3,1,0,.5-.2.8-.3.4-.6.6-.5.3-.8.4c-.3,0-.6.1-.9.1h0Z"/>
  <path class="st19" d="M95,31.7v-.8h3.6v.8h-3.6Z"/>
  <path class="st19" d="M98.8,31l2.4-6.3h1l2.4,6.3h-.9l-.5-1.4h-2.9l-.5,1.4h-.9ZM100.5,28.8h2.3l-1.2-3.3-1.2,3.3h0Z"/>
  <path class="st19" d="M106.2,31v-5.6h-2.1v-.8h5.1v.8h-2.1v5.6h-.9Z"/>
  <path class="st19" d="M110,31v-6.3h2.6c.5,0,.8,0,1.1.2s.5.4.6.6c.1.2.2.5.2.8s0,.5-.2.8-.3.5-.5.6c.3.2.6.4.7.7.2.3.2.6.2.9s0,.6-.2.9c-.2.3-.4.5-.7.7s-.7.3-1.2.3h-2.7ZM110.9,27.4h1.8c.3,0,.6-.1.7-.3.2-.2.2-.4.2-.7s0-.3-.1-.5-.2-.3-.3-.4c-.1-.1-.3-.1-.5-.1h-1.8v2h0ZM110.9,30.2h1.9c.2,0,.4,0,.6-.2s.3-.2.4-.4c0-.2.1-.3.1-.5s0-.4-.1-.5-.2-.3-.4-.4-.4-.2-.6-.2h-1.9v2.2h0Z"/>
  <path class="st19" d="M117.2,31c.2-.2.3-.5.5-.6.1-.2.3-.4.4-.6s.3-.5.4-.7c-.2,0-.3,0-.5,0-.4,0-.8-.1-1.1-.3s-.6-.5-.8-.8-.3-.7-.3-1.1,0-.8.3-1.1c.2-.3.5-.6.8-.8.3-.2.7-.3,1.1-.3s.8.1,1.2.3.6.5.8.8.3.7.3,1.1,0,.6-.2.9c0,0-.1.2-.2.4-.1.2-.3.5-.4.8-.2.3-.4.6-.6,1-.2.4-.4.7-.7,1.1h-1ZM118,28.3c.3,0,.5,0,.7-.2.2-.1.4-.3.5-.5.1-.2.2-.5.2-.7s0-.5-.2-.7-.3-.4-.5-.5c-.2-.1-.5-.2-.7-.2s-.5,0-.7.2c-.2.1-.4.3-.5.5s-.2.5-.2.7,0,.5.2.7.3.4.5.5c.2.1.5.2.7.2Z"/>
  <path class="st19" d="M122.9,31v-4.8h-1.7v-.6c.3,0,.6,0,.8,0,.3,0,.5-.1.7-.3.2-.1.3-.3.4-.6h.5v6.3h-.8,0Z"/>
  <path class="st19" d="M5.9,42.4v-6.3h1.7c.5,0,1,0,1.4.2.4,0,.8.3,1.1.5s.6.6.7,1,.3.9.3,1.5,0,1.1-.3,1.5-.4.7-.7,1c-.3.2-.7.4-1.1.5s-.9.2-1.4.2h-1.7ZM6.8,41.6h.8c.3,0,.7,0,1,0,.3,0,.6-.2.8-.3s.4-.4.6-.7c.1-.3.2-.8.2-1.3s0-1-.2-1.3-.3-.6-.6-.7c-.2-.2-.5-.3-.8-.3-.3,0-.6,0-.9,0h-.8v4.8h0Z"/>
  <path class="st19" d="M11.3,42.4l2.4-6.3h1l2.4,6.3h-1l-.5-1.4h-2.9l-.5,1.4s-.9,0-.9,0ZM13,40.2h2.3l-1.2-3.3-1.2,3.3Z"/>
  <path class="st19" d="M18.7,42.4v-5.6h-2.1v-.8h5.1v.8h-2.1v5.6h-.9Z"/>
  <path class="st19" d="M21.3,42.4l2.4-6.3h1l2.4,6.3h-1l-.5-1.4h-2.9l-.5,1.4s-1,0-.9,0ZM23,40.2h2.3l-1.2-3.3-1.2,3.3Z"/>
  <path class="st19" d="M27.8,42.4v-6.3h2.5c.5,0,.8,0,1.1.2.3.2.5.3.6.6s.2.5.2.8,0,.5-.2.8c-.1.2-.3.5-.5.6.3.2.6.4.7.7.2.3.2.6.2.9s0,.6-.2.9c-.2.3-.4.5-.7.7-.3.2-.7.3-1.2.3h-2.7,0ZM28.7,38.7h1.8c.3,0,.6,0,.7-.3s.2-.4.2-.7,0-.3-.1-.5-.2-.3-.3-.4c-.1,0-.3-.2-.5-.2h-1.8v2h0ZM28.7,41.6h1.9c.2,0,.4,0,.6-.2s.3-.2.4-.4c0-.2.1-.3.1-.5s0-.4-.1-.5-.2-.3-.4-.4-.4-.2-.6-.2h-1.9v2.2h0Z"/>
  <path class="st19" d="M32.9,42.4l2.4-6.3h1l2.4,6.3h-1l-.5-1.4h-2.9l-.5,1.4h-1ZM34.6,40.2h2.3l-1.2-3.3s-1.2,3.3-1.2,3.3Z"/>
  <path class="st19" d="M41.5,42.5c-.3,0-.7,0-1-.2-.3-.1-.6-.3-.9-.5s-.4-.5-.5-.8l.8-.2c0,.2.2.4.4.6s.4.3.6.3.5,0,.7,0,.5,0,.7-.1.4-.2.5-.4c.1-.2.2-.4.2-.6s0-.5-.3-.6-.5-.3-1-.4l-.8-.2c-.3,0-.6-.2-.9-.3-.3-.1-.5-.3-.7-.5s-.3-.5-.3-.9.1-.7.3-.9c.2-.2.5-.4.9-.6.4-.1.7-.2,1.1-.2s.6,0,.9.1.5.2.8.4c.2.2.4.4.5.7l-.8.2c-.1-.2-.3-.4-.6-.5s-.5-.2-.8-.2-.5,0-.7.1c-.2,0-.4.2-.5.3s-.2.3-.2.5,0,.4.2.5c.1.1.3.2.5.3.2,0,.4.1.7.2l.7.2c.3,0,.6.2.9.3s.5.3.7.6.3.6.3,1,0,.5-.2.8-.3.4-.6.6-.5.3-.8.4c-.3,0-.6.1-.9.1h0Z"/>
  <path class="st19" d="M45.1,42.4v-6.3h4.3v.8h-3.4v1.9h2.5v.8h-2.5v2.1h3.4v.8s-4.3,0-4.3,0Z"/>
  <path class="st19" d="M49.8,43.1v-.8h3.6v.8h-3.6Z"/>
  <path class="st19" d="M56.7,42.5c-.9,0-1.6-.2-2-.7s-.6-1.2-.6-2.1v-3.7h.9v3.8c0,.6.1,1.1.4,1.4s.7.5,1.3.5,1-.2,1.3-.5.4-.8.4-1.4v-3.8h.9v3.7c0,.9-.2,1.6-.6,2.1-.4.5-1,.7-2,.7Z"/>
  <path class="st19" d="M62.8,42.5c-.3,0-.7,0-1-.2-.3-.1-.6-.3-.9-.5s-.4-.5-.5-.8l.8-.2c0,.2.2.4.4.6s.4.3.6.3c.2,0,.5,0,.7,0s.5,0,.7-.1.4-.2.5-.4c.1-.2.2-.4.2-.6s0-.5-.3-.6-.5-.3-1-.4l-.8-.2c-.3,0-.6-.2-.9-.3-.3-.1-.5-.3-.7-.5s-.3-.5-.3-.9.1-.7.3-.9c.2-.2.5-.4.9-.6.4-.1.7-.2,1.1-.2s.6,0,.9.1c.3,0,.5.2.8.4s.4.4.6.7l-.8.2c-.1-.2-.3-.4-.6-.5s-.5-.2-.8-.2-.4,0-.7.1c-.2,0-.4.2-.5.3-.1.2-.2.3-.2.5s0,.4.2.5c.1.1.3.2.5.3.2,0,.4.1.7.2l.7.2c.3,0,.6.2.9.3s.5.3.7.6c.2.2.3.6.3,1s0,.5-.2.8-.3.4-.6.6c-.2.2-.5.3-.8.4-.3,0-.6.1-.9.1h0Z"/>
  <path class="st19" d="M66.4,42.4v-6.3h2c.5,0,1,0,1.4.1.4,0,.7.3.9.5s.3.7.3,1.2,0,.5-.1.8-.3.5-.5.6c-.2.2-.6.3-1.1.4l2,2.7h-1.1l-1.9-2.7h-.9v2.7h-.9ZM67.2,38.9h1.2c.3,0,.6,0,.8,0s.4-.1.6-.3c.2-.2.2-.4.2-.7s0-.6-.2-.7-.3-.2-.6-.3-.5,0-.8,0h-1.2s0,2.2,0,2.2Z"/>
  <path class="st19" d="M72.5,38.8c-.2,0-.3,0-.4-.2s-.2-.3-.2-.4,0-.3.2-.4.3-.2.4-.2.3,0,.4.2.2.3.2.4,0,.3-.2.4-.3.2-.4.2ZM72.5,42.5c-.2,0-.3,0-.4-.2s-.2-.3-.2-.4,0-.3.2-.4.3-.2.4-.2.3,0,.4.2.2.3.2.4,0,.3-.2.4-.3.2-.4.2Z"/>
  <path class="st19" d="M74.4,38.8c-.2,0-.3,0-.4-.2s-.2-.3-.2-.4,0-.3.2-.4.3-.2.4-.2.3,0,.4.2.2.3.2.4,0,.3-.2.4-.3.2-.4.2ZM74.4,42.5c-.2,0-.3,0-.4-.2s-.2-.3-.2-.4,0-.3.2-.4.3-.2.4-.2.3,0,.4.2.2.3.2.4,0,.3-.2.4-.3.2-.4.2Z"/>
  <path class="st19" d="M76.1,42.4v-6.3h2c.5,0,1,0,1.4.1s.7.3.9.5c.2.3.3.7.3,1.2s0,.5-.1.8-.3.5-.5.6c-.2.2-.6.3-1.1.4l2,2.7h-1.1l-1.9-2.7h-.9v2.7h-.9ZM77,38.9h1.2c.3,0,.6,0,.8,0s.4-.1.6-.3c.2-.2.2-.4.2-.7s0-.6-.2-.7-.3-.2-.6-.3-.5,0-.8,0h-1.2s0,2.2,0,2.2Z"/>
  <path class="st19" d="M84.5,42.5c-.6,0-1.1-.1-1.6-.4s-.8-.7-1-1.2c-.2-.5-.4-1.1-.4-1.7s.1-1.2.4-1.7c.2-.5.6-.9,1-1.2.4-.3,1-.4,1.6-.4s1.1.1,1.6.4.8.7,1,1.2c.2.5.4,1,.4,1.7s-.1,1.2-.4,1.7-.6.9-1,1.2c-.4.3-1,.4-1.6.4ZM84.5,41.7c.4,0,.7,0,1.1-.3.3-.2.6-.5.7-.9s.3-.8.3-1.4,0-1-.3-1.4-.4-.7-.7-.8-.7-.3-1.1-.3-.7,0-1,.3-.6.5-.7.8-.3.8-.3,1.4,0,1,.3,1.4.4.7.7.9.7.3,1,.3Z"/>
  <path class="st19" d="M91.3,42.5c-.6,0-1.1-.1-1.6-.4s-.8-.7-1-1.2c-.2-.5-.4-1.1-.4-1.7s.1-1.2.4-1.7c.2-.5.6-.9,1-1.2.4-.3,1-.4,1.6-.4s1.1.1,1.6.4.8.7,1,1.2c.2.5.4,1,.4,1.7s-.1,1.2-.4,1.7-.6.9-1,1.2c-.4.3-1,.4-1.6.4ZM91.3,41.7c.4,0,.7,0,1.1-.3.3-.2.6-.5.7-.9s.3-.8.3-1.4,0-1-.3-1.4-.4-.7-.7-.8-.7-.3-1.1-.3-.7,0-1,.3-.6.5-.7.8-.3.8-.3,1.4,0,1,.3,1.4.4.7.7.9.7.3,1,.3Z"/>
  <path class="st19" d="M96.6,42.4v-5.6h-2.1v-.8h5.1v.8h-2.1v5.6h-.9Z"/>
  <path class="st19" d="M5.9,53.7v-6.3h1.7c.5,0,1,0,1.4.2.4,0,.8.3,1.1.5s.6.6.7,1,.3.9.3,1.5,0,1.1-.3,1.5-.4.7-.7,1c-.3.2-.7.4-1.1.5s-.9.2-1.4.2h-1.7ZM6.8,53h.8c.3,0,.7,0,1,0,.3,0,.6-.2.8-.3s.4-.4.6-.7c.1-.3.2-.8.2-1.3s0-1-.2-1.3-.3-.6-.6-.7c-.2-.2-.5-.3-.8-.3-.3,0-.6,0-.9,0h-.8v4.8h0Z"/>
  <path class="st19" d="M11.3,53.7l2.4-6.3h1l2.4,6.3h-1l-.5-1.4h-2.9l-.5,1.4s-.9,0-.9,0ZM13,51.6h2.3l-1.2-3.3-1.2,3.3Z"/>
  <path class="st19" d="M18.7,53.7v-5.6h-2.1v-.8h5.1v.8h-2.1v5.6h-.9Z"/>
  <path class="st19" d="M21.3,53.7l2.4-6.3h1l2.4,6.3h-1l-.5-1.4h-2.9l-.5,1.4s-1,0-.9,0ZM23,51.6h2.3l-1.2-3.3-1.2,3.3Z"/>
  <path class="st19" d="M27.8,53.7v-6.3h2.5c.5,0,.8,0,1.1.2.3.2.5.3.6.6s.2.5.2.8,0,.5-.2.8c-.1.2-.3.5-.5.6.3.2.6.4.7.7.2.3.2.6.2.9s0,.6-.2.9c-.2.3-.4.5-.7.7-.3.2-.7.3-1.2.3h-2.7,0ZM28.7,50.1h1.8c.3,0,.6,0,.7-.3s.2-.4.2-.7,0-.3-.1-.5-.2-.3-.3-.4c-.1,0-.3-.2-.5-.2h-1.8v2h0ZM28.7,53h1.9c.2,0,.4,0,.6-.2s.3-.2.4-.4c0-.2.1-.3.1-.5s0-.4-.1-.5-.2-.3-.4-.4-.4-.2-.6-.2h-1.9v2.2h0Z"/>
  <path class="st19" d="M32.9,53.7l2.4-6.3h1l2.4,6.3h-1l-.5-1.4h-2.9l-.5,1.4h-1ZM34.6,51.6h2.3l-1.2-3.3s-1.2,3.3-1.2,3.3Z"/>
  <path class="st19" d="M41.5,53.8c-.3,0-.7,0-1-.2-.3-.1-.6-.3-.9-.5s-.4-.5-.5-.8l.8-.2c0,.2.2.4.4.6s.4.3.6.3.5,0,.7,0,.5,0,.7-.1.4-.2.5-.4c.1-.2.2-.4.2-.6s0-.5-.3-.6-.5-.3-1-.4l-.8-.2c-.3,0-.6-.2-.9-.3-.3-.1-.5-.3-.7-.5s-.3-.5-.3-.9.1-.7.3-.9c.2-.2.5-.4.9-.6.4-.1.7-.2,1.1-.2s.6,0,.9.1.5.2.8.4c.2.2.4.4.5.7l-.8.2c-.1-.2-.3-.4-.6-.5s-.5-.2-.8-.2-.5,0-.7.1c-.2,0-.4.2-.5.3s-.2.3-.2.5,0,.4.2.5c.1.1.3.2.5.3.2,0,.4.1.7.2l.7.2c.3,0,.6.2.9.3s.5.3.7.6.3.6.3,1,0,.5-.2.8-.3.4-.6.6-.5.3-.8.4c-.3,0-.6.1-.9.1h0Z"/>
  <path class="st19" d="M45.1,53.7v-6.3h4.3v.8h-3.4v1.9h2.5v.8h-2.5v2.1h3.4v.8s-4.3,0-4.3,0Z"/>
  <path class="st19" d="M49.8,54.5v-.8h3.6v.8h-3.6Z"/>
  <path class="st19" d="M55.2,53.7l-1.6-6.3h1l1.2,5.2,1.2-5.2h1l1.2,5.2,1.2-5.2h1l-1.6,6.3h-1.1l-1.2-5.2-1.2,5.2h-1.1Z"/>
  <path class="st19" d="M62.1,53.7v-6.3h4.3v.8h-3.4v1.9h2.5v.8h-2.5v2.1h3.4v.8s-4.3,0-4.3,0Z"/>
  <path class="st19" d="M66.9,53.7l2.4-6.3h1l2.4,6.3h-.9l-.5-1.4h-2.9l-.5,1.4h-1ZM68.6,51.6h2.3l-1.2-3.3-1.2,3.3Z"/>
  <path class="st19" d="M73.4,53.7v-6.3h.9v5.6h3.4v.8h-4.3Z"/>
  <path class="st19" d="M79,53.7v-5.6h-2.1v-.8h5.1v.8h-2.1v5.6h-.9Z"/>
  <path class="st19" d="M82.8,53.7v-6.3h.9v2.7h3.3v-2.7h.9v6.3h-.9v-2.9h-3.3v2.9h-.9Z"/>
  <path class="st19" d="M89.6,50.2c-.2,0-.3,0-.4-.2s-.2-.3-.2-.4,0-.3.2-.4.3-.2.4-.2.3,0,.4.2.2.3.2.4,0,.3-.2.4-.3.2-.4.2ZM89.6,53.8c-.2,0-.3,0-.4-.2s-.2-.3-.2-.4,0-.3.2-.4.3-.2.4-.2.3,0,.4.2.2.3.2.4,0,.3-.2.4-.3.2-.4.2Z"/>
  <path class="st19" d="M91.6,50.2c-.2,0-.3,0-.4-.2s-.2-.3-.2-.4,0-.3.2-.4.3-.2.4-.2.3,0,.4.2.2.3.2.4,0,.3-.2.4-.3.2-.4.2ZM91.6,53.8c-.2,0-.3,0-.4-.2s-.2-.3-.2-.4,0-.3.2-.4.3-.2.4-.2.3,0,.4.2.2.3.2.4,0,.3-.2.4-.3.2-.4.2Z"/>
  <path class="st19" d="M92.8,53.7v-.7c.8-.5,1.4-1,1.9-1.5.5-.5.9-.9,1.2-1.3s.4-.8.4-1.2,0-.6-.3-.8c-.2-.2-.5-.3-.9-.3s-.6,0-.8.2-.4.4-.5.8l-.8-.2c.1-.5.4-.8.7-1.1.4-.3.8-.4,1.4-.4s.7,0,1,.2.5.3.7.6.3.5.3.9,0,.7-.3,1.1c-.2.3-.4.7-.7,1s-.7.7-1.1,1-.8.7-1.3,1h3.5v.7h-4.6,0Z"/>
  <path class="st19" d="M100.8,53.8c-.8,0-1.4-.3-1.9-.8-.4-.6-.6-1.4-.6-2.4s.2-1.9.6-2.4c.4-.6,1-.8,1.9-.8s1.4.3,1.9.8.6,1.4.6,2.4-.2,1.9-.6,2.4-1.1.8-1.9.8ZM100.8,53.1c.4,0,.8-.1,1.1-.4l-2.5-3.6c0,.2-.1.4-.1.7s0,.5,0,.8c0,.8.1,1.5.4,1.9.3.5.7.7,1.2.7h0ZM102.3,51.9c.1-.4.2-.8.2-1.4,0-.8-.1-1.5-.4-1.9-.3-.4-.7-.7-1.2-.7s-.8.1-1,.4l2.5,3.6h0Z"/>
  <path class="st19" d="M106.9,53.8c-.8,0-1.4-.3-1.9-.8-.4-.6-.6-1.4-.6-2.4s.2-1.9.6-2.4c.4-.6,1-.8,1.9-.8s1.4.3,1.9.8.6,1.4.6,2.4-.2,1.9-.6,2.4-1.1.8-1.9.8ZM106.9,53.1c.4,0,.8-.1,1.1-.4l-2.5-3.6c0,.2-.1.4-.1.7s0,.5,0,.8c0,.8.1,1.5.4,1.9.3.5.7.7,1.2.7h0ZM108.4,51.9c.1-.4.2-.8.2-1.4,0-.8-.1-1.5-.4-1.9-.3-.4-.7-.7-1.2-.7s-.8.1-1,.4l2.5,3.6h0Z"/>
  <path class="st19" d="M5.9,65.1v-6.3h1.7c.5,0,1,0,1.4.2.4,0,.8.3,1.1.5s.6.6.7,1,.3.9.3,1.5,0,1.1-.3,1.5-.4.7-.7,1c-.3.2-.7.4-1.1.5s-.9.2-1.4.2h-1.7ZM6.8,64.3h.8c.3,0,.7,0,1,0,.3,0,.6-.2.8-.3.2-.2.4-.4.6-.7.1-.3.2-.8.2-1.3s0-1-.2-1.3-.3-.6-.6-.7c-.2-.2-.5-.3-.8-.3-.3,0-.6,0-.9,0h-.8v4.8h0Z"/>
  <path class="st19" d="M11.3,65.1l2.4-6.3h1l2.4,6.3h-1l-.5-1.4h-2.9l-.5,1.4s-.9,0-.9,0ZM13,62.9h2.3l-1.2-3.3-1.2,3.3Z"/>
  <path class="st19" d="M18.7,65.1v-5.6h-2.1v-.8h5.1v.8h-2.1v5.6h-.9Z"/>
  <path class="st19" d="M21.3,65.1l2.4-6.3h1l2.4,6.3h-1l-.5-1.4h-2.9l-.5,1.4s-1,0-.9,0ZM23,62.9h2.3l-1.2-3.3-1.2,3.3Z"/>
  <path class="st19" d="M27.8,65.1v-6.3h2.5c.5,0,.8,0,1.1.2.3.2.5.3.6.6s.2.5.2.8,0,.5-.2.8c-.1.2-.3.5-.5.6.3.2.6.4.7.7.2.3.2.6.2.9s0,.6-.2.9c-.2.3-.4.5-.7.7-.3.2-.7.3-1.2.3h-2.7,0ZM28.7,61.5h1.8c.3,0,.6,0,.7-.3s.2-.4.2-.7,0-.3-.1-.5-.2-.3-.3-.4c-.1,0-.3-.2-.5-.2h-1.8v2h0ZM28.7,64.3h1.9c.2,0,.4,0,.6-.2s.3-.2.4-.4c0-.2.1-.3.1-.5s0-.4-.1-.5-.2-.3-.4-.4-.4-.2-.6-.2h-1.9v2.2h0Z"/>
  <path class="st19" d="M32.9,65.1l2.4-6.3h1l2.4,6.3h-1l-.5-1.4h-2.9l-.5,1.4h-1ZM34.6,62.9h2.3l-1.2-3.3s-1.2,3.3-1.2,3.3Z"/>
  <path class="st19" d="M41.5,65.2c-.3,0-.7,0-1-.2-.3-.1-.6-.3-.9-.5s-.4-.5-.5-.8l.8-.2c0,.2.2.4.4.6.2.1.4.3.6.3s.5,0,.7,0,.5,0,.7-.1.4-.2.5-.4c.1-.2.2-.4.2-.6s0-.5-.3-.6-.5-.3-1-.4l-.8-.2c-.3,0-.6-.2-.9-.3-.3-.1-.5-.3-.7-.5s-.3-.5-.3-.9.1-.7.3-.9c.2-.2.5-.4.9-.6.4-.1.7-.2,1.1-.2s.6,0,.9.1.5.2.8.4c.2.2.4.4.5.7l-.8.2c-.1-.2-.3-.4-.6-.5s-.5-.2-.8-.2-.5,0-.7.1c-.2,0-.4.2-.5.3s-.2.3-.2.5,0,.4.2.5c.1.1.3.2.5.3.2,0,.4.1.7.2l.7.2c.3,0,.6.2.9.3s.5.3.7.6.3.6.3,1,0,.5-.2.8-.3.4-.6.6-.5.3-.8.4c-.3,0-.6.1-.9.1h0Z"/>
  <path class="st19" d="M45.1,65.1v-6.3h4.3v.8h-3.4v1.9h2.5v.8h-2.5v2.1h3.4v.8s-4.3,0-4.3,0Z"/>
  <path class="st19" d="M49.8,65.8v-.8h3.6v.8h-3.6Z"/>
  <path class="st19" d="M56.3,65.2c-.3,0-.7,0-1-.2-.3-.1-.6-.3-.9-.5s-.4-.5-.5-.8l.8-.2c0,.2.2.4.4.6.2.1.4.3.6.3s.5,0,.7,0,.5,0,.7-.1.4-.2.5-.4c.1-.2.2-.4.2-.6s0-.5-.3-.6-.5-.3-1-.4l-.8-.2c-.3,0-.6-.2-.9-.3-.3-.1-.5-.3-.7-.5s-.3-.5-.3-.9.1-.7.3-.9c.2-.2.5-.4.9-.6.4-.1.7-.2,1.1-.2s.6,0,.9.1.5.2.8.4c.2.2.4.4.5.7l-.8.2c-.1-.2-.3-.4-.6-.5s-.5-.2-.8-.2-.5,0-.7.1c-.2,0-.4.2-.5.3s-.2.3-.2.5,0,.4.2.5c.1.1.3.2.5.3.2,0,.4.1.7.2l.7.2c.3,0,.6.2.9.3s.5.3.7.6.3.6.3,1,0,.5-.2.8-.3.4-.6.6-.5.3-.8.4c-.3,0-.6.1-.9.1h0Z"/>
  <path class="st19" d="M59.7,65.1v-.7h.9v-4.9h-.9v-.7h2.7v.7h-.9v4.9h.9v.7h-2.7Z"/>
  <path class="st19" d="M63.4,65.1v-.8l3.7-4.8h-3.6v-.8h4.6v.8l-3.7,4.8h3.8v.8h-4.9Z"/>
  <path class="st19" d="M69.5,65.1v-6.3h4.3v.8h-3.4v1.9h2.5v.8h-2.5v2.1h3.4v.8s-4.3,0-4.3,0Z"/>
  <path class="st19" d="M75.1,61.5c-.2,0-.3,0-.4-.2s-.2-.3-.2-.4,0-.3.2-.4.3-.2.4-.2.3,0,.4.2.2.3.2.4,0,.3-.2.4-.3.2-.4.2ZM75.1,65.2c-.2,0-.3,0-.4-.2s-.2-.3-.2-.4,0-.3.2-.4.3-.2.4-.2.3,0,.4.2.2.3.2.4,0,.3-.2.4-.3.2-.4.2Z"/>
  <path class="st19" d="M77.1,61.5c-.2,0-.3,0-.4-.2s-.2-.3-.2-.4,0-.3.2-.4.3-.2.4-.2.3,0,.4.2.2.3.2.4,0,.3-.2.4-.3.2-.4.2ZM77.1,65.2c-.2,0-.3,0-.4-.2s-.2-.3-.2-.4,0-.3.2-.4.3-.2.4-.2.3,0,.4.2.2.3.2.4,0,.3-.2.4-.3.2-.4.2Z"/>
  <path class="st19" d="M81.5,65.2c-.6,0-1.1-.1-1.6-.4s-.8-.7-1-1.2c-.2-.5-.4-1.1-.4-1.7s.1-1.2.4-1.7c.2-.5.6-.9,1-1.2.4-.3,1-.4,1.6-.4s1.1.1,1.6.4.8.7,1,1.2c.2.5.4,1,.4,1.7s-.1,1.2-.4,1.7c-.2.5-.6.9-1,1.2-.4.3-1,.4-1.6.4ZM81.5,64.4c.4,0,.7,0,1.1-.3.3-.2.6-.5.7-.9s.3-.8.3-1.4,0-1-.3-1.4-.4-.7-.7-.8-.7-.3-1.1-.3-.7,0-1,.3-.6.5-.7.8-.3.8-.3,1.4,0,1,.3,1.4.4.7.7.9c.3.2.7.3,1,.3Z"/>
  <path class="st19" d="M85.6,65.1v-6.3h2c.5,0,1,0,1.4.2.4,0,.7.3.9.6s.3.7.3,1.2-.1.9-.3,1.2-.5.5-.9.6c-.4,0-.8.2-1.4.2h-1.1v2.5s-.9,0-.9,0ZM86.5,61.8h1.2c.3,0,.6,0,.8,0s.4-.2.6-.3.2-.4.2-.8,0-.6-.2-.8c-.2-.2-.3-.3-.6-.3-.2,0-.5,0-.8,0h-1.2v2.3h0Z"/>
  <path class="st19" d="M91.3,65.1v-6.3h4.3v.8h-3.4v1.9h2.5v.8h-2.5v2.1h3.4v.8s-4.3,0-4.3,0Z"/>
  <path class="st19" d="M96.7,65.1v-6.3h1.3l2.9,5.4v-5.4h.9v6.3h-1.3l-2.9-5.4v5.4s-.9,0-.9,0Z"/>
  <path class="st19" d="M5.9,76.4v-6.3h1.7c.5,0,1,0,1.4.2.4,0,.8.3,1.1.5s.6.6.7,1,.3.9.3,1.5,0,1.1-.3,1.5-.4.7-.7,1c-.3.2-.7.4-1.1.5s-.9.2-1.4.2h-1.7ZM6.8,75.7h.8c.3,0,.7,0,1,0,.3,0,.6-.2.8-.3.2-.2.4-.4.6-.7.1-.3.2-.8.2-1.3s0-1-.2-1.3-.3-.6-.6-.7c-.2-.2-.5-.3-.8-.3-.3,0-.6,0-.9,0h-.8v4.8h0Z"/>
  <path class="st19" d="M11.3,76.4l2.4-6.3h1l2.4,6.3h-1l-.5-1.4h-2.9l-.5,1.4s-.9,0-.9,0ZM13,74.3h2.3l-1.2-3.3-1.2,3.3Z"/>
  <path class="st19" d="M18.7,76.4v-5.6h-2.1v-.8h5.1v.8h-2.1v5.6h-.9Z"/>
  <path class="st19" d="M21.3,76.4l2.4-6.3h1l2.4,6.3h-1l-.5-1.4h-2.9l-.5,1.4s-1,0-.9,0ZM23,74.3h2.3l-1.2-3.3-1.2,3.3Z"/>
  <path class="st19" d="M27.8,76.4v-6.3h2.5c.5,0,.8,0,1.1.2.3.2.5.3.6.6s.2.5.2.8,0,.5-.2.8c-.1.2-.3.5-.5.6.3.2.6.4.7.7.2.3.2.6.2.9s0,.6-.2.9c-.2.3-.4.5-.7.7-.3.2-.7.3-1.2.3h-2.7,0ZM28.7,72.8h1.8c.3,0,.6,0,.7-.3.2-.2.2-.4.2-.7s0-.3-.1-.5-.2-.3-.3-.4c-.1,0-.3-.2-.5-.2h-1.8v2h0ZM28.7,75.7h1.9c.2,0,.4,0,.6-.2s.3-.2.4-.4c0-.2.1-.3.1-.5s0-.4-.1-.5-.2-.3-.4-.4-.4-.2-.6-.2h-1.9v2.2h0Z"/>
  <path class="st19" d="M32.9,76.4l2.4-6.3h1l2.4,6.3h-1l-.5-1.4h-2.9l-.5,1.4h-1ZM34.6,74.3h2.3l-1.2-3.3s-1.2,3.3-1.2,3.3Z"/>
  <path class="st19" d="M41.5,76.6c-.3,0-.7,0-1-.2-.3-.1-.6-.3-.9-.5s-.4-.5-.5-.8l.8-.2c0,.2.2.4.4.6s.4.3.6.3.5,0,.7,0,.5,0,.7-.1.4-.2.5-.4c.1-.2.2-.4.2-.6s0-.5-.3-.6-.5-.3-1-.4l-.8-.2c-.3,0-.6-.2-.9-.3-.3-.1-.5-.3-.7-.5s-.3-.6-.3-.9.1-.7.3-.9c.2-.2.5-.4.9-.6.4-.1.7-.2,1.1-.2s.6,0,.9.1.5.2.8.4c.2.2.4.4.5.7l-.8.2c-.1-.2-.3-.4-.6-.5s-.5-.2-.8-.2-.5,0-.7.1c-.2,0-.4.2-.5.3s-.2.3-.2.6,0,.4.2.5c.1.1.3.2.5.3.2,0,.4.1.7.2l.7.2c.3,0,.6.2.9.3s.5.3.7.6.3.6.3,1,0,.6-.2.8-.3.4-.6.6-.5.3-.8.4c-.3,0-.6.1-.9.1h0Z"/>
  <path class="st19" d="M45.1,76.4v-6.3h4.3v.8h-3.4v1.9h2.5v.8h-2.5v2.1h3.4v.8h-4.3Z"/>
  <path class="st19" d="M49.8,77.2v-.8h3.6v.8h-3.6Z"/>
  <path class="st19" d="M54.2,76.4v-6.3h2c.5,0,1,0,1.4.2.4,0,.7.3.9.6s.3.7.3,1.2-.1.9-.3,1.2-.5.5-.9.6c-.4,0-.8.2-1.4.2h-1.1v2.5h-.9ZM55.1,73.2h1.2c.3,0,.6,0,.8,0s.4-.2.6-.3.2-.4.2-.8,0-.6-.2-.8c-.2-.2-.3-.3-.6-.3-.2,0-.5,0-.8,0h-1.2v2.3h0Z"/>
  <path class="st19" d="M62.6,76.6c-.6,0-1.1-.1-1.6-.4s-.8-.7-1-1.2c-.2-.5-.4-1.1-.4-1.7s.1-1.2.4-1.7c.2-.5.6-.9,1-1.2.4-.3,1-.4,1.6-.4s1.1.1,1.6.4c.4.3.8.7,1,1.2.2.5.4,1.1.4,1.7s-.1,1.2-.4,1.7-.6.9-1,1.2c-.4.3-1,.4-1.6.4ZM62.6,75.8c.4,0,.7,0,1-.3.3-.2.6-.5.7-.9s.3-.8.3-1.4,0-1-.3-1.4-.4-.7-.7-.8-.7-.3-1-.3-.7,0-1,.3-.6.5-.7.8-.3.8-.3,1.4,0,1,.3,1.4.4.7.7.9.7.3,1,.3Z"/>
  <path class="st19" d="M68.8,76.6c-.3,0-.7,0-1-.2s-.6-.3-.9-.5-.4-.5-.5-.8l.8-.2c0,.2.2.4.4.6s.4.3.6.3c.2,0,.4,0,.7,0s.5,0,.7-.1.4-.2.6-.4c.1-.2.2-.4.2-.6s0-.5-.3-.6-.5-.3-1-.4l-.8-.2c-.3,0-.6-.2-.9-.3-.3-.1-.5-.3-.7-.5s-.3-.6-.3-.9.1-.7.3-.9c.2-.2.5-.4.9-.6.4-.1.7-.2,1.1-.2s.6,0,.9.1c.3,0,.6.2.8.4s.4.4.6.7l-.8.2c-.1-.2-.3-.4-.6-.5s-.6-.2-.8-.2-.4,0-.7.1-.4.2-.5.3c-.1.2-.2.3-.2.6s0,.4.2.5c.1.1.3.2.5.3.2,0,.4.1.7.2l.7.2c.3,0,.6.2.9.3.3.1.5.3.7.6.2.2.3.6.3,1s0,.6-.2.8-.3.4-.6.6c-.2.2-.5.3-.8.4-.3,0-.6.1-.9.1h0Z"/>
  <path class="st19" d="M72.7,72.9c-.2,0-.3,0-.4-.2s-.2-.3-.2-.4,0-.3.2-.4.3-.2.4-.2.3,0,.4.2.2.3.2.4,0,.3-.2.4-.3.2-.4.2ZM72.7,76.6c-.2,0-.3,0-.4-.2s-.2-.3-.2-.4,0-.3.2-.4.3-.2.4-.2.3,0,.4.2.2.3.2.4,0,.3-.2.4-.3.2-.4.2Z"/>
  <path class="st19" d="M74.6,72.9c-.2,0-.3,0-.4-.2s-.2-.3-.2-.4,0-.3.2-.4.3-.2.4-.2.3,0,.4.2.2.3.2.4,0,.3-.2.4-.3.2-.4.2ZM74.6,76.6c-.2,0-.3,0-.4-.2s-.2-.3-.2-.4,0-.3.2-.4.3-.2.4-.2.3,0,.4.2.2.3.2.4,0,.3-.2.4-.3.2-.4.2Z"/>
  <path class="st19" d="M77.7,76.4v-4.8h-1.7v-.6c.3,0,.6,0,.8,0,.3,0,.5-.1.7-.3.2-.1.3-.3.4-.6h.5v6.3h-.8,0Z"/>
  <path class="st19" d="M81.4,76.4c.2-.2.3-.5.5-.7.1-.2.3-.4.4-.6.2-.2.3-.4.4-.7-.2,0-.3,0-.5,0-.4,0-.8,0-1.1-.3s-.6-.5-.8-.8-.3-.7-.3-1.1,0-.8.3-1.1c.2-.3.5-.6.8-.8s.7-.3,1.1-.3.8,0,1.2.3.6.5.8.8.3.7.3,1.1,0,.6-.2.9c0,0-.1.2-.2.4s-.3.5-.4.8-.4.6-.6,1c-.2.4-.4.7-.7,1.1h-1ZM82.2,73.7c.3,0,.5,0,.7-.2s.4-.3.5-.5.2-.5.2-.7,0-.5-.2-.7-.3-.4-.5-.5-.5-.2-.7-.2-.5,0-.7.2c-.2.1-.4.3-.5.5s-.2.5-.2.7,0,.5.2.7.3.4.5.5c.2.1.5.2.7.2Z"/>
  <path class="st19" d="M85.3,76.4v-.7c.8-.6,1.4-1.1,1.9-1.5.5-.5.9-.9,1.2-1.3s.4-.8.4-1.2,0-.6-.3-.8c-.2-.2-.5-.3-.9-.3s-.6,0-.8.2-.4.4-.5.8l-.8-.2c.1-.5.4-.8.7-1.1.4-.3.8-.4,1.4-.4s.7,0,1,.2.5.3.7.6.3.6.3.9,0,.7-.3,1.1c-.2.3-.4.7-.7,1s-.7.7-1.1,1-.8.7-1.3,1h3.5v.7h-4.6,0Z"/>
  <path class="st19" d="M92.3,76.4v-4.8h-1.7v-.6c.3,0,.6,0,.8,0,.3,0,.5-.1.7-.3.2-.1.3-.3.4-.6h.5v6.3h-.8,0Z"/>
  <path class="st19" d="M96.9,76.6c-.8,0-1.4-.3-1.7-.8-.4-.5-.6-1.3-.6-2.2s0-.9.1-1.3c0-.4.2-.8.4-1.1.2-.3.4-.6.8-.8.3-.2.7-.3,1.2-.3s.8,0,1.1.3c.3.2.5.4.6.7l-.8.2c0-.2-.2-.3-.4-.4-.2,0-.4-.2-.7-.2-.5,0-.9.2-1.1.7-.3.4-.4,1-.4,1.8.1-.2.3-.4.6-.6.3-.2.6-.3,1-.3s.7,0,1.1.3c.3.2.6.4.7.8.2.3.3.7.3,1.1s0,.8-.3,1.1c-.2.3-.4.6-.8.8s-.7.3-1.2.3h0ZM96.9,75.9c.4,0,.8-.1,1-.4s.4-.6.4-1.1-.1-.8-.4-1.1-.6-.4-1-.4-.8.1-1,.4-.4.6-.4,1.1.1.8.4,1.1.6.4,1,.4Z"/>
  <path class="st19" d="M102.6,76.6c-.4,0-.8,0-1.2-.2-.4-.2-.6-.4-.8-.6s-.3-.6-.3-1,.1-.8.3-1.1.5-.5.8-.6c-.2-.2-.3-.3-.4-.6s-.2-.4-.2-.7,0-.6.2-.9c.2-.3.4-.5.6-.6.3-.2.6-.2.9-.2s.6,0,.9.2.5.4.6.6.2.6.2.9,0,.5-.2.7-.2.4-.4.6c.3.1.6.3.8.6.2.3.3.6.3,1.1s0,.8-.3,1-.5.5-.8.6c-.3.2-.8.2-1.2.2h0ZM102.6,75.9c.4,0,.8-.1,1.1-.3s.4-.5.4-.9-.1-.7-.4-.9-.6-.3-1.1-.3-.8.1-1.1.3c-.3.2-.4.5-.4.9s.1.7.4.9c.3.2.6.3,1.1.3ZM102.6,72.7c.3,0,.5,0,.7-.3.2-.2.3-.4.3-.7s0-.5-.3-.7c-.2-.2-.4-.3-.7-.3s-.5,0-.7.3c-.2.2-.3.4-.3.7s0,.5.3.7c.2.2.4.3.7.3Z"/>
  <path class="st19" d="M108.6,76.6c-.8,0-1.4-.3-1.9-.8-.4-.6-.6-1.4-.6-2.4s.2-1.9.6-2.4,1-.8,1.9-.8,1.4.3,1.9.8.6,1.4.6,2.4-.2,1.9-.6,2.4-1.1.8-1.9.8ZM108.6,75.9c.4,0,.8-.1,1.1-.4l-2.5-3.6c0,.2-.1.4-.1.7s0,.5,0,.8c0,.8.1,1.5.4,1.9.3.4.7.7,1.2.7h0ZM110.1,74.6c.1-.4.2-.8.2-1.4,0-.8-.1-1.5-.4-1.9-.3-.4-.7-.7-1.2-.7s-.8.1-1,.4l2.5,3.6h0Z"/>
  <path class="st19" d="M114.7,76.6c-.8,0-1.4-.3-1.9-.8-.4-.6-.6-1.4-.6-2.4s.2-1.9.6-2.4,1.1-.8,1.9-.8,1.4.3,1.9.8c.4.6.6,1.4.6,2.4s-.2,1.9-.6,2.4-1.1.8-1.9.8ZM114.7,75.9c.4,0,.8-.1,1.1-.4l-2.5-3.6c0,.2-.1.4-.1.7s0,.5,0,.8c0,.8.1,1.5.4,1.9s.7.7,1.2.7h0ZM116.2,74.6c.1-.4.2-.8.2-1.4,0-.8-.1-1.5-.4-1.9-.3-.4-.7-.7-1.2-.7s-.8.1-1,.4l2.5,3.6h0Z"/>
  <path class="st19" d="M119.9,76.4v-4.8h-1.7v-.6c.3,0,.6,0,.8,0,.3,0,.5-.1.7-.3.2-.1.3-.3.4-.6h.5v6.3h-.8,0Z"/>
  <path class="st19" d="M121.7,76.4l2.5-6.3h.8l-2.5,6.3h-.8Z"/>
  <path class="st19" d="M127.2,76.4v-4.8h-1.7v-.6c.3,0,.6,0,.8,0,.3,0,.5-.1.7-.3.2-.1.3-.3.4-.6h.5v6.3h-.8,0Z"/>
  <path class="st19" d="M129.3,76.4v-.7c.8-.6,1.4-1.1,1.9-1.5s.9-.9,1.2-1.3c.3-.4.4-.8.4-1.2s-.1-.6-.3-.8c-.2-.2-.5-.3-.9-.3s-.6,0-.8.2c-.3.2-.4.4-.5.8l-.8-.2c.1-.5.4-.8.7-1.1s.9-.4,1.4-.4.7,0,1,.2c.3.1.5.3.7.6.2.2.3.6.3.9s0,.7-.3,1.1-.4.7-.7,1-.7.7-1.1,1-.8.7-1.3,1h3.5v.7h-4.6Z"/>
  <path class="st19" d="M135.1,76.4l2.8-5.6h-3.5v-.8h4.4v.8l-2.6,5.6h-1Z"/>
  <path class="st19" d="M142.1,76.6c-.8,0-1.4-.3-1.9-.8-.4-.6-.6-1.4-.6-2.4s.2-1.9.6-2.4,1-.8,1.9-.8,1.4.3,1.9.8c.4.6.6,1.4.6,2.4s-.2,1.9-.6,2.4-1.1.8-1.9.8ZM142.1,75.9c.4,0,.8-.1,1.1-.4l-2.5-3.6c0,.2-.1.4-.1.7s0,.5,0,.8c0,.8.1,1.5.4,1.9.3.4.7.7,1.2.7h0ZM143.6,74.6c.1-.4.2-.8.2-1.4,0-.8-.1-1.5-.4-1.9-.3-.4-.7-.7-1.2-.7s-.8.1-1,.4l2.5,3.6h0Z"/>
  <path class="st19" d="M148.2,76.6c-.8,0-1.4-.3-1.9-.8-.4-.6-.6-1.4-.6-2.4s.2-1.9.6-2.4,1.1-.8,1.9-.8,1.4.3,1.9.8c.4.6.6,1.4.6,2.4s-.2,1.9-.6,2.4-1.1.8-1.9.8ZM148.2,75.9c.4,0,.8-.1,1.1-.4l-2.5-3.6c0,.2-.1.4-.1.7s0,.5,0,.8c0,.8.1,1.5.4,1.9s.7.7,1.2.7h0ZM149.7,74.6c.1-.4.2-.8.2-1.4,0-.8-.1-1.5-.4-1.9-.3-.4-.7-.7-1.2-.7s-.8.1-1,.4l2.5,3.6h0Z"/>
  <path class="st19" d="M153.4,76.4v-4.8h-1.7v-.6c.3,0,.6,0,.9,0,.3,0,.5-.1.7-.3.2-.1.3-.3.4-.6h.5v6.3h-.8,0Z"/>
  <path class="st8" d="M579.8,17.6V3.7h2v7l6.3-7h2.4l-5.3,5.8,5.9,8.1h-2.4l-4.8-6.7-2.1,2.3v4.4h-2Z"/>
  <path class="st7" d="M591.5,17.6l5.2-13.9h2.2l5.2,13.9h-2.1l-1.1-3h-6.3l-1.1,3h-2.1ZM595.2,12.9h5.1l-2.6-7.2-2.6,7.2Z"/>
  <path class="st5" d="M605.9,17.6V3.7h4.3c1.1,0,2.1.1,3,.3.9.2,1.5.6,2,1.2.5.6.7,1.5.7,2.6s-.2,2-.7,2.6c-.5.6-1.2,1-2,1.2-.9.2-1.9.3-3,.3h-2.4v5.5h-2,0ZM607.9,10.4h2.6c.7,0,1.3,0,1.8-.1s1-.3,1.3-.7.5-.9.5-1.7-.2-1.3-.5-1.7-.8-.6-1.3-.7-1.2-.2-1.8-.2h-2.6v5h0Z"/>
  <path class="st1" d="M618.2,17.6v-1.5h2V5.2h-2v-1.5h5.9v1.5h-2v10.8h2v1.5h-5.9Z"/>
  <path class="st18" d="M630.3,17.6V5.4h-4.6v-1.7h11.2v1.7h-4.6v12.2h-2Z"/>
  <path class="st10" d="M638.7,17.6V3.7h9.4v1.7h-7.5v4.2h5.5v1.7h-5.5v4.6h7.5v1.7h-9.4Z"/>
  <path class="st11" d="M650.5,17.6V3.7h2v12.2h7.5v1.7h-9.4Z"/>
  <path class="st6" d="M662.2,9.8c-.4,0-.7-.1-.9-.4s-.4-.6-.4-1,.1-.7.4-.9.6-.4.9-.4.7.1,1,.4.4.6.4.9-.1.7-.4,1-.6.4-1,.4ZM662.2,17.9c-.4,0-.7-.1-.9-.4s-.4-.6-.4-.9.1-.7.4-1c.3-.3.6-.4.9-.4s.7.1,1,.4c.3.3.4.6.4,1s-.1.7-.4.9-.6.4-1,.4Z"/>
  <path class="st22" d="M666.5,9.8c-.4,0-.7-.1-.9-.4s-.4-.6-.4-1,.1-.7.4-.9.6-.4.9-.4.7.1,1,.4.4.6.4.9-.1.7-.4,1-.6.4-1,.4ZM666.5,17.9c-.4,0-.7-.1-.9-.4s-.4-.6-.4-.9.1-.7.4-1c.3-.3.6-.4.9-.4s.7.1,1,.4c.3.3.4.6.4,1s-.1.7-.4.9-.6.4-1,.4Z"/>
  <path class="st14" d="M676,17.9c-1.3,0-2.5-.3-3.4-.9s-1.7-1.5-2.2-2.6-.8-2.3-.8-3.8.3-2.7.8-3.8c.5-1.1,1.3-1.9,2.3-2.5s2.1-.9,3.4-.9,2.2.3,3.2.8,1.6,1.3,2.1,2.3l-1.7.6c-.3-.6-.8-1.1-1.4-1.5-.6-.4-1.4-.6-2.3-.6s-1.6.2-2.2.6-1.2,1-1.6,1.9c-.4.8-.6,1.8-.6,3s.2,2.2.6,3c.4.8.9,1.5,1.6,1.9s1.4.7,2.3.7,1.7-.2,2.3-.6,1.1-.9,1.4-1.5l1.7.6c-.5,1-1.2,1.8-2.2,2.3s-2.1.8-3.3.8h0Z"/>
  <path class="st4" d="M683.9,17.6V3.7h2v5.9h7.3V3.7h2v13.9h-2v-6.3h-7.3v6.3h-2Z"/>
  <path class="st23" d="M696.9,17.6l5.2-13.9h2.2l5.2,13.9h-2.1l-1.1-3h-6.3l-1.1,3h-2.1ZM700.7,12.9h5.1l-2.6-7.2-2.6,7.2Z"/>
  <path class="st12" d="M711.3,17.6V3.7h4.3c1.1,0,2.1.1,3,.3.9.2,1.5.6,2,1.2.5.6.7,1.5.7,2.6s-.2,2-.7,2.6c-.5.6-1.2,1-2,1.2-.9.2-1.9.3-3,.3h-2.4v5.5h-2,0ZM713.3,10.4h2.6c.7,0,1.3,0,1.8-.1s1-.3,1.3-.7.5-.9.5-1.7-.2-1.3-.5-1.7-.8-.6-1.3-.7-1.2-.2-1.8-.2h-2.6v5h0Z"/>
  <path class="st20" d="M727.1,17.6V5.4h-4.6v-1.7h11.2v1.7h-4.6v12.2h-2Z"/>
  <path class="st9" d="M735.5,17.6V3.7h9.4v1.7h-7.5v4.2h5.5v1.7h-5.5v4.6h7.5v1.7h-9.4Z"/>
  <path class="st0" d="M747.3,17.6V3.7h4.4c1.1,0,2.1,0,3,.3s1.5.6,2,1.2.7,1.4.7,2.5,0,1.2-.3,1.8-.6,1-1.1,1.4c-.5.4-1.4.6-2.5.8l4.3,6h-2.4l-4.2-5.9h-2.1v5.9h-2,0ZM749.2,10.1h2.6c.7,0,1.3,0,1.8-.1.5-.1,1-.3,1.3-.7.3-.3.5-.9.5-1.6s-.2-1.2-.5-1.6-.8-.6-1.3-.7c-.5,0-1.2-.2-1.8-.2h-2.6v4.8h0Z"/>
  <path class="st2" d="M760.7,9.8c-.4,0-.7-.1-.9-.4s-.4-.6-.4-1,.1-.7.4-.9.6-.4.9-.4.7.1,1,.4.4.6.4.9-.1.7-.4,1-.6.4-1,.4ZM760.7,17.9c-.4,0-.7-.1-.9-.4s-.4-.6-.4-.9.1-.7.4-1c.3-.3.6-.4.9-.4s.7.1,1,.4c.3.3.4.6.4,1s-.1.7-.4.9-.6.4-1,.4Z"/>
  <path class="st13" d="M765,9.8c-.4,0-.7-.1-.9-.4s-.4-.6-.4-1,.1-.7.4-.9.6-.4.9-.4.7.1,1,.4.4.6.4.9-.1.7-.4,1-.6.4-1,.4ZM765,17.9c-.4,0-.7-.1-.9-.4s-.4-.6-.4-.9.1-.7.4-1c.3-.3.6-.4.9-.4s.7.1,1,.4c.3.3.4.6.4,1s-.1.7-.4.9-.6.4-1,.4Z"/>
  <path class="st17" d="M787.1,15.3v1.2h-8.8v2.9h-1.4v-2.9h-8.7v-1.2h8.7v-1.4h-6v-5.9h13.6v5.9h-6.2v1.4h8.8ZM787,5.5v1.2h-18.9v-1.2h5.5c-.2-.7-.6-1.5-1-2.2l.7-.2h-4v-1.2h7.4V0h1.8c0,.3-.1.4-.4.4v1.5h7.6v1.2h-3.9l1,.4c0,.1-.2.2-.4.2-.3.5-.7,1.3-1.1,1.9h5.7ZM772.1,9v1.4h10.8v-1.4h-10.8ZM772.1,11.4v1.5h10.8v-1.5h-10.8ZM780.5,5.5c-.2,0-.3-.2-.5-.2.3-.6.8-1.5,1.1-2.2h-7.2c.5.7.9,1.7,1,2.3l-.4.2h6,0Z"/>
  <polygon class="st19" points="730.4 25.1 717.7 25.1 712 25.1 712 30.8 712 43.5 717.7 43.5 717.7 30.8 730.4 30.8 730.4 25.1"/>
  <polygon class="st19" points="787.1 43.5 787.1 30.8 787.1 25.1 781.4 25.1 768.7 25.1 768.7 30.8 781.4 30.8 781.4 43.5 787.1 43.5"/>
  <polygon class="st19" points="768.7 99.7 781.4 99.7 787.1 99.7 787.1 94.1 787.1 81.4 781.4 81.4 781.4 94.1 768.7 94.1 768.7 99.7"/>
  <polygon class="st19" points="712.6 81.4 712.6 94.1 712.6 99.7 718.2 99.7 730.9 99.7 730.9 94.1 718.2 94.1 718.2 81.4 712.6 81.4"/>
  <path class="st19" d="M764.5,66.1h0l-3.9-3.9,3.9-3.9h12.9v-23.9h-56.2v24.2h13.1l3.9,3.9-3.9,3.9h-13.1v24.2h56.2v-24.5h-12.9ZM747.5,57.4v9.8l-18.7,18.7v-9.8l13.8-13.8-13.8-13.8v-9.8l18.7,18.7h0ZM769.9,85.9l-18.7-18.7v-9.8l18.7-18.7v9.8l-13.8,13.8,13.8,13.8v9.8Z"/>
  <path class="st19" d="M604.9,37.9l-24.5,24.5,24.5,24.5,24.5-24.5s-24.5-24.5-24.5-24.5ZM602.3,53.7h5v10.4h0l-2.5,2.5-2.5-2.5v-10.4ZM604.8,76.2l-2.5-2.5h5l-2.5,2.5ZM608,72.6h-6.2l-11.9-11.9h6.2l8.8,8.8,8.8-8.8h6.2l-11.9,11.9h0Z"/>
  <path class="st19" d="M670.7,37.9l-24.5,24.5,24.5,24.5,24.5-24.5s-24.5-24.5-24.5-24.5ZM670.8,49.5l2.5,2.5h-5l2.5-2.5ZM673.3,71.9h-5v-10.4h0l2.5-2.5,2.5,2.5v10.4ZM670.7,56.1l-8.8,8.8h-6.2l11.9-11.9h6.3l11.9,11.9h-6.2l-8.8-8.8h0Z"/>
</svg>